<?xml version="1.0" encoding="UTF-8"?>
<!DOCTYPE svg PUBLIC "-//W3C//DTD SVG 1.1//EN" "http://www.w3.org/Graphics/SVG/1.1/DTD/svg11.dtd">
<svg version="1.2" width="200mm" height="94mm" viewBox="0 0 20000 9400" preserveAspectRatio="xMidYMid" fill-rule="evenodd" stroke-width="28.222" stroke-linejoin="round" xmlns="http://www.w3.org/2000/svg" xmlns:ooo="http://xml.openoffice.org/svg/export" xmlns:xlink="http://www.w3.org/1999/xlink" xmlns:presentation="http://sun.com/xmlns/staroffice/presentation" xmlns:smil="http://www.w3.org/2001/SMIL20/" xmlns:anim="urn:oasis:names:tc:opendocument:xmlns:animation:1.0" xml:space="preserve">
 <defs class="ClipPathGroup">
  <clipPath id="presentation_clip_path" clipPathUnits="userSpaceOnUse">
   <rect x="0" y="0" width="20000" height="9400"/>
  </clipPath>
  <clipPath id="presentation_clip_path_shrink" clipPathUnits="userSpaceOnUse">
   <rect x="20" y="9" width="19960" height="9382"/>
  </clipPath>
 </defs>
 <defs class="TextShapeIndex">
  <g ooo:slide="id1" ooo:id-list="id3 id4 id5 id6 id7 id8 id9 id10 id11 id12 id13 id14 id15 id16 id17 id18 id19 id20 id21 id22 id23"/>
 </defs>
 <defs class="EmbeddedBulletChars">
  <g id="bullet-char-template-57356" transform="scale(0.00048828125,-0.00048828125)">
   <path d="M 580,1141 L 1163,571 580,0 -4,571 580,1141 Z"/>
  </g>
  <g id="bullet-char-template-57354" transform="scale(0.00048828125,-0.00048828125)">
   <path d="M 8,1128 L 1137,1128 1137,0 8,0 8,1128 Z"/>
  </g>
  <g id="bullet-char-template-10146" transform="scale(0.00048828125,-0.00048828125)">
   <path d="M 174,0 L 602,739 174,1481 1456,739 174,0 Z M 1358,739 L 309,1346 659,739 1358,739 Z"/>
  </g>
  <g id="bullet-char-template-10132" transform="scale(0.00048828125,-0.00048828125)">
   <path d="M 2015,739 L 1276,0 717,0 1260,543 174,543 174,936 1260,936 717,1481 1274,1481 2015,739 Z"/>
  </g>
  <g id="bullet-char-template-10007" transform="scale(0.00048828125,-0.00048828125)">
   <path d="M 0,-2 C -7,14 -16,27 -25,37 L 356,567 C 262,823 215,952 215,954 215,979 228,992 255,992 264,992 276,990 289,987 310,991 331,999 354,1012 L 381,999 492,748 772,1049 836,1024 860,1049 C 881,1039 901,1025 922,1006 886,937 835,863 770,784 769,783 710,716 594,584 L 774,223 C 774,196 753,168 711,139 L 727,119 C 717,90 699,76 672,76 641,76 570,178 457,381 L 164,-76 C 142,-110 111,-127 72,-127 30,-127 9,-110 8,-76 1,-67 -2,-52 -2,-32 -2,-23 -1,-13 0,-2 Z"/>
  </g>
  <g id="bullet-char-template-10004" transform="scale(0.00048828125,-0.00048828125)">
   <path d="M 285,-33 C 182,-33 111,30 74,156 52,228 41,333 41,471 41,549 55,616 82,672 116,743 169,778 240,778 293,778 328,747 346,684 L 369,508 C 377,444 397,411 428,410 L 1163,1116 C 1174,1127 1196,1133 1229,1133 1271,1133 1292,1118 1292,1087 L 1292,965 C 1292,929 1282,901 1262,881 L 442,47 C 390,-6 338,-33 285,-33 Z"/>
  </g>
  <g id="bullet-char-template-9679" transform="scale(0.00048828125,-0.00048828125)">
   <path d="M 813,0 C 632,0 489,54 383,161 276,268 223,411 223,592 223,773 276,916 383,1023 489,1130 632,1184 813,1184 992,1184 1136,1130 1245,1023 1353,916 1407,772 1407,592 1407,412 1353,268 1245,161 1136,54 992,0 813,0 Z"/>
  </g>
  <g id="bullet-char-template-8226" transform="scale(0.00048828125,-0.00048828125)">
   <path d="M 346,457 C 273,457 209,483 155,535 101,586 74,649 74,723 74,796 101,859 155,911 209,963 273,989 346,989 419,989 480,963 531,910 582,859 608,796 608,723 608,648 583,586 532,535 482,483 420,457 346,457 Z"/>
  </g>
  <g id="bullet-char-template-8211" transform="scale(0.00048828125,-0.00048828125)">
   <path d="M -4,459 L 1135,459 1135,606 -4,606 -4,459 Z"/>
  </g>
  <g id="bullet-char-template-61548" transform="scale(0.00048828125,-0.00048828125)">
   <path d="M 173,740 C 173,903 231,1043 346,1159 462,1274 601,1332 765,1332 928,1332 1067,1274 1183,1159 1299,1043 1357,903 1357,740 1357,577 1299,437 1183,322 1067,206 928,148 765,148 601,148 462,206 346,322 231,437 173,577 173,740 Z"/>
  </g>
 </defs>
 <g>
  <g id="id2" class="Master_Slide">
   <g id="bg-id2" class="Background"/>
   <g id="bo-id2" class="BackgroundObjects"/>
  </g>
 </g>
 <g class="SlideGroup">
  <g>
   <g id="container-id1">
    <g id="id1" class="Slide" clip-path="url(#presentation_clip_path)">
     <g class="Page">
      <g class="Group">
       <g class="Group">
        <g class="com.sun.star.drawing.LineShape">
         <g id="id3">
          <rect class="BoundingBox" stroke="none" fill="none" x="1255" y="1970" width="301" height="6352"/>
          <path fill="none" stroke="rgb(0,0,0)" d="M 1405,8320 L 1405,2285"/>
          <path fill="rgb(0,0,0)" stroke="none" d="M 1554,2281 L 1421,1982 1414,1974 1406,1970 1396,1974 1389,1981 1256,2281 1255,2285 1255,2287 1256,2293 1260,2300 1265,2303 1271,2305 1539,2305 1545,2303 1551,2300 1554,2293 1555,2287 1555,2285 1554,2281 Z"/>
         </g>
        </g>
        <g class="com.sun.star.drawing.LineShape">
         <g id="id4">
          <rect class="BoundingBox" stroke="none" fill="none" x="1404" y="8170" width="8130" height="301"/>
          <path fill="none" stroke="rgb(0,0,0)" d="M 1405,8320 L 9218,8320"/>
          <path fill="rgb(0,0,0)" stroke="none" d="M 9222,8469 L 9521,8336 9529,8329 9533,8321 9529,8311 9522,8304 9222,8171 9218,8170 9216,8170 9210,8171 9203,8175 9200,8180 9198,8186 9198,8454 9200,8460 9203,8466 9210,8469 9216,8470 9218,8470 9222,8469 Z"/>
         </g>
        </g>
       </g>
       <g class="Group">
        <g class="com.sun.star.drawing.LineShape">
         <g id="id5">
          <rect class="BoundingBox" stroke="none" fill="none" x="10625" y="1968" width="301" height="6352"/>
          <path fill="none" stroke="rgb(0,0,0)" d="M 10775,8318 L 10775,2283"/>
          <path fill="rgb(0,0,0)" stroke="none" d="M 10924,2279 L 10791,1980 10784,1972 10776,1968 10766,1972 10759,1979 10626,2279 10625,2283 10625,2285 10626,2291 10630,2298 10635,2301 10641,2303 10909,2303 10915,2301 10921,2298 10924,2291 10925,2285 10925,2283 10924,2279 Z"/>
         </g>
        </g>
        <g class="com.sun.star.drawing.LineShape">
         <g id="id6">
          <rect class="BoundingBox" stroke="none" fill="none" x="10774" y="8168" width="8130" height="301"/>
          <path fill="none" stroke="rgb(0,0,0)" d="M 10775,8318 L 18588,8318"/>
          <path fill="rgb(0,0,0)" stroke="none" d="M 18592,8467 L 18891,8334 18899,8327 18903,8319 18899,8309 18892,8302 18592,8169 18588,8168 18586,8168 18580,8169 18573,8173 18570,8178 18568,8184 18568,8452 18570,8458 18573,8464 18580,8467 18586,8468 18588,8468 18592,8467 Z"/>
         </g>
        </g>
       </g>
       <g class="Group">
        <g class="Graphic">
         <g id="id7">
          <rect class="BoundingBox" stroke="none" fill="none" x="389" y="862" width="2097" height="755"/>
          <path fill="rgb(0,0,0)" stroke="none" d="M 723,1410 C 832,1369 935,1244 935,1109 935,996 861,920 756,920 604,920 450,1079 450,1243 450,1359 528,1430 630,1430 647,1430 671,1427 698,1419 696,1463 696,1464 696,1473 696,1496 696,1550 754,1550 837,1550 871,1422 871,1414 871,1409 866,1407 863,1407 858,1407 856,1411 855,1415 838,1465 797,1482 773,1482 740,1482 730,1463 723,1410 L 723,1410 Z M 590,1404 C 535,1383 512,1328 512,1265 512,1217 530,1117 583,1041 634,970 700,937 752,937 822,937 873,992 873,1086 873,1156 837,1320 719,1386 716,1362 709,1311 658,1311 620,1311 586,1346 586,1382 586,1396 590,1404 590,1404 L 590,1404 Z M 634,1412 C 624,1412 601,1412 601,1382 601,1354 628,1326 658,1326 687,1326 700,1343 700,1386 700,1396 700,1397 693,1400 674,1407 653,1412 634,1412 L 634,1412 Z"/>
          <path fill="rgb(0,0,0)" stroke="none" d="M 1203,1583 C 1203,1580 1203,1579 1191,1567 1103,1479 1081,1346 1081,1239 1081,1117 1107,995 1194,907 1203,899 1203,898 1203,895 1203,890 1200,888 1196,888 1189,888 1126,936 1084,1025 1048,1102 1040,1180 1040,1239 1040,1294 1048,1379 1086,1458 1128,1544 1189,1590 1196,1590 1200,1590 1203,1588 1203,1583 L 1203,1583 Z"/>
          <path fill="rgb(0,0,0)" stroke="none" d="M 1518,1152 C 1498,1153 1484,1168 1484,1184 1484,1193 1491,1204 1506,1204 1521,1204 1538,1192 1538,1165 1538,1133 1508,1104 1455,1104 1362,1104 1336,1176 1336,1207 1336,1261 1388,1272 1408,1276 1445,1283 1481,1291 1481,1329 1481,1348 1465,1407 1381,1407 1371,1407 1317,1407 1301,1369 1328,1373 1345,1352 1345,1332 1345,1316 1334,1308 1319,1308 1301,1308 1280,1322 1280,1354 1280,1394 1320,1422 1380,1422 1494,1422 1521,1337 1521,1306 1521,1280 1508,1263 1500,1254 1481,1235 1460,1231 1430,1225 1404,1219 1376,1214 1376,1183 1376,1163 1393,1120 1455,1120 1472,1120 1507,1125 1518,1152 L 1518,1152 Z"/>
          <path fill="rgb(0,0,0)" stroke="none" d="M 1715,1414 C 1715,1367 1698,1340 1670,1340 1647,1340 1633,1358 1633,1377 1633,1396 1647,1414 1670,1414 1679,1414 1688,1411 1695,1405 1697,1404 1698,1403 1698,1403 1699,1403 1700,1404 1700,1414 1700,1465 1675,1508 1652,1531 1644,1538 1644,1540 1644,1542 1644,1547 1648,1550 1651,1550 1659,1550 1715,1496 1715,1414 L 1715,1414 Z"/>
          <path fill="rgb(0,0,0)" stroke="none" d="M 2146,1149 C 2134,1123 2113,1104 2082,1104 2000,1104 1913,1207 1913,1310 1913,1376 1951,1422 2006,1422 2020,1422 2055,1419 2097,1369 2103,1399 2127,1422 2161,1422 2186,1422 2202,1406 2213,1383 2225,1358 2234,1315 2234,1314 2234,1307 2228,1307 2226,1307 2219,1307 2218,1310 2216,1320 2204,1365 2191,1407 2163,1407 2144,1407 2142,1388 2142,1374 2142,1359 2143,1353 2151,1322 2158,1293 2160,1286 2166,1259 L 2191,1161 C 2196,1142 2196,1140 2196,1137 2196,1125 2188,1118 2176,1118 2159,1118 2149,1134 2146,1149 L 2146,1149 Z M 2101,1331 C 2097,1343 2097,1345 2087,1357 2056,1395 2027,1407 2007,1407 1972,1407 1963,1368 1963,1341 1963,1306 1985,1219 2001,1187 2023,1146 2054,1120 2083,1120 2128,1120 2138,1177 2138,1182 2138,1186 2137,1190 2136,1193 L 2101,1331 2101,1331 Z"/>
          <path fill="rgb(0,0,0)" stroke="none" d="M 2459,1239 C 2459,1184 2451,1099 2412,1020 2370,934 2310,888 2303,888 2299,888 2296,891 2296,895 2296,898 2296,899 2309,912 2378,981 2418,1092 2418,1239 2418,1359 2392,1482 2305,1571 2296,1579 2296,1580 2296,1583 2296,1587 2299,1590 2303,1590 2310,1590 2373,1542 2414,1453 2450,1376 2459,1298 2459,1239 L 2459,1239 Z"/>
         </g>
        </g>
       </g>
       <g class="Group">
        <g class="Graphic">
         <g id="id8">
          <rect class="BoundingBox" stroke="none" fill="none" x="8804" y="8574" width="349" height="317"/>
          <defs>
           <clipPath id="clip_path_1" clipPathUnits="userSpaceOnUse">
            <path d="M 8804,8574 L 9152,8574 9152,8890 8804,8890 8804,8574 Z"/>
           </clipPath>
          </defs>
          <g clip-path="url(#clip_path_1)">
           <path fill="rgb(0,0,0)" stroke="none" d="M 9065,8619 C 9052,8593 9032,8574 9000,8574 8919,8574 8832,8677 8832,8778 8832,8844 8870,8890 8925,8890 8939,8890 8974,8887 9016,8838 9021,8867 9046,8890 9079,8890 9104,8890 9120,8874 9131,8852 9143,8827 9152,8784 9152,8783 9152,8776 9146,8776 9144,8776 9137,8776 9136,8778 9134,8788 9122,8833 9109,8875 9081,8875 9062,8875 9060,8857 9060,8843 9060,8827 9061,8822 9069,8791 9077,8762 9078,8755 9084,8728 L 9109,8631 C 9114,8611 9114,8610 9114,8607 9114,8595 9106,8588 9094,8588 9077,8588 9067,8603 9065,8619 L 9065,8619 Z M 9019,8799 C 9016,8812 9016,8813 9005,8825 8975,8863 8946,8875 8926,8875 8891,8875 8882,8836 8882,8809 8882,8774 8904,8688 8920,8656 8942,8615 8973,8589 9001,8589 9046,8589 9056,8647 9056,8651 9056,8655 9055,8659 9054,8663 L 9019,8799 9019,8799 Z"/>
          </g>
         </g>
        </g>
       </g>
       <g class="com.sun.star.drawing.CustomShape">
        <g id="id9">
         <rect class="BoundingBox" stroke="none" fill="none" x="1839" y="7176" width="128" height="1144"/>
         <path fill="rgb(255,64,0)" stroke="none" d="M 1903,8319 L 1839,8319 1839,7176 1966,7176 1966,8319 1903,8319 Z"/>
        </g>
       </g>
       <g class="com.sun.star.drawing.CustomShape">
        <g id="id10">
         <rect class="BoundingBox" stroke="none" fill="none" x="2474" y="5144" width="128" height="3176"/>
         <path fill="rgb(255,64,0)" stroke="none" d="M 2538,8319 L 2474,8319 2474,5144 2601,5144 2601,8319 2538,8319 Z"/>
        </g>
       </g>
       <g class="com.sun.star.drawing.CustomShape">
        <g id="id11">
         <rect class="BoundingBox" stroke="none" fill="none" x="3109" y="4382" width="128" height="3938"/>
         <path fill="rgb(255,64,0)" stroke="none" d="M 3173,8319 L 3109,8319 3109,4382 3236,4382 3236,8319 3173,8319 Z"/>
        </g>
       </g>
       <g class="com.sun.star.drawing.CustomShape">
        <g id="id12">
         <rect class="BoundingBox" stroke="none" fill="none" x="3744" y="5272" width="128" height="3049"/>
         <path fill="rgb(255,64,0)" stroke="none" d="M 3808,8320 L 3744,8320 3744,5272 3871,5272 3871,8320 3808,8320 Z"/>
        </g>
       </g>
       <g class="com.sun.star.drawing.CustomShape">
        <g id="id13">
         <rect class="BoundingBox" stroke="none" fill="none" x="4379" y="6160" width="128" height="2160"/>
         <path fill="rgb(255,64,0)" stroke="none" d="M 4443,8319 L 4379,8319 4379,6160 4506,6160 4506,8319 4443,8319 Z"/>
        </g>
       </g>
       <g class="com.sun.star.drawing.CustomShape">
        <g id="id14">
         <rect class="BoundingBox" stroke="none" fill="none" x="5014" y="6542" width="128" height="1779"/>
         <path fill="rgb(255,64,0)" stroke="none" d="M 5078,8320 L 5014,8320 5014,6542 5141,6542 5141,8320 5078,8320 Z"/>
        </g>
       </g>
       <g class="com.sun.star.drawing.CustomShape">
        <g id="id15">
         <rect class="BoundingBox" stroke="none" fill="none" x="5649" y="7050" width="128" height="1271"/>
         <path fill="rgb(255,64,0)" stroke="none" d="M 5713,8320 L 5649,8320 5649,7050 5776,7050 5776,8320 5713,8320 Z"/>
        </g>
       </g>
       <g class="com.sun.star.drawing.CustomShape">
        <g id="id16">
         <rect class="BoundingBox" stroke="none" fill="none" x="6284" y="6034" width="128" height="2287"/>
         <path fill="rgb(255,64,0)" stroke="none" d="M 6348,8320 L 6284,8320 6284,6034 6411,6034 6411,8320 6348,8320 Z"/>
        </g>
       </g>
       <g class="com.sun.star.drawing.CustomShape">
        <g id="id17">
         <rect class="BoundingBox" stroke="none" fill="none" x="6919" y="4256" width="128" height="4065"/>
         <path fill="rgb(255,64,0)" stroke="none" d="M 6983,8320 L 6919,8320 6919,4256 7046,4256 7046,8320 6983,8320 Z"/>
        </g>
       </g>
       <g class="com.sun.star.drawing.CustomShape">
        <g id="id18">
         <rect class="BoundingBox" stroke="none" fill="none" x="7554" y="3494" width="128" height="4827"/>
         <path fill="rgb(255,64,0)" stroke="none" d="M 7618,8320 L 7554,8320 7554,3494 7681,3494 7681,8320 7618,8320 Z"/>
        </g>
       </g>
       <g class="com.sun.star.drawing.CustomShape">
        <g id="id19">
         <rect class="BoundingBox" stroke="none" fill="none" x="8189" y="5780" width="128" height="2541"/>
         <path fill="rgb(255,64,0)" stroke="none" d="M 8253,8320 L 8189,8320 8189,5780 8316,5780 8316,8320 8253,8320 Z"/>
        </g>
       </g>
       <g class="com.sun.star.drawing.CustomShape">
        <g id="id20">
         <rect class="BoundingBox" stroke="none" fill="none" x="8824" y="7050" width="128" height="1271"/>
         <path fill="rgb(255,64,0)" stroke="none" d="M 8888,8320 L 8824,8320 8824,7050 8951,7050 8951,8320 8888,8320 Z"/>
        </g>
       </g>
       <g class="com.sun.star.drawing.OpenFreeHandShape">
        <g id="id21">
         <rect class="BoundingBox" stroke="none" fill="none" x="10153" y="3465" width="9473" height="4616"/>
         <path fill="none" stroke="rgb(255,64,0)" stroke-width="28" stroke-linejoin="round" d="M 10168,8066 C 10458,7934 10725,7740 10921,7496 11125,7242 11324,6951 11377,6629 11419,6369 11468,6143 11468,5876 11468,5617 11547,5365 11673,5124 11800,4881 11905,4634 11993,4371 12090,4082 12533,4053 12722,4280 12908,4503 13086,4743 13201,5010 13333,5318 13561,5546 13726,5831 13880,6096 14152,6270 14410,6424 14627,6553 14926,6653 15163,6538 15413,6417 15617,6160 15665,5854 15705,5598 15837,5366 15938,5124 16044,4868 16166,4630 16258,4371 16350,4112 16482,3873 16646,3641 16956,3203 17104,3777 17170,3960 17270,4238 17366,4508 17467,4782 17557,5026 17654,5260 17740,5511 17836,5791 17956,6052 18037,6333 18105,6569 18235,6782 18311,7017 18423,7363 18706,7579 18949,7815 L 19177,7952 19428,8020 19611,8043"/>
        </g>
       </g>
       <g class="Group">
        <g class="Graphic">
         <g id="id22">
          <rect class="BoundingBox" stroke="none" fill="none" x="9642" y="469" width="9475" height="1705"/>
          <defs>
           <clipPath id="clip_path_2" clipPathUnits="userSpaceOnUse">
            <path d="M 9642,469 L 19116,469 19116,2173 9642,2173 9642,469 Z"/>
           </clipPath>
          </defs>
          <g clip-path="url(#clip_path_2)">
           <path fill="rgb(0,0,0)" stroke="none" d="M 9828,1209 L 9908,1209 C 9884,1312 9878,1343 9878,1390 9878,1400 9878,1419 9884,1443 9891,1474 9898,1478 9909,1478 9923,1478 9938,1465 9938,1451 9938,1447 9938,1446 9934,1436 9913,1385 9913,1340 9913,1320 9913,1283 9918,1245 9926,1209 L 10006,1209 C 10015,1209 10040,1209 10040,1185 10040,1168 10026,1168 10012,1168 L 9777,1168 C 9761,1168 9735,1168 9704,1201 9679,1228 9661,1260 9661,1264 9661,1265 9661,1271 9669,1271 9675,1271 9676,1268 9681,1263 9715,1209 9756,1209 9770,1209 L 9810,1209 C 9787,1293 9750,1378 9720,1442 9714,1453 9714,1454 9714,1459 9714,1472 9726,1478 9735,1478 9756,1478 9761,1458 9770,1432 9780,1400 9780,1399 9789,1364 L 9828,1209 9828,1209 Z"/>
           <path fill="rgb(0,0,0)" stroke="none" d="M 10300,1639 C 10300,1637 10300,1635 10288,1623 10201,1535 10178,1402 10178,1295 10178,1173 10205,1051 10291,963 10300,954 10300,953 10300,951 10300,946 10298,944 10293,944 10286,944 10223,992 10182,1081 10146,1158 10137,1236 10137,1295 10137,1350 10145,1435 10184,1514 10226,1600 10286,1646 10293,1646 10298,1646 10300,1644 10300,1639 L 10300,1639 Z"/>
           <path fill="rgb(0,0,0)" stroke="none" d="M 10616,1208 C 10596,1209 10582,1224 10582,1239 10582,1249 10588,1260 10604,1260 10619,1260 10636,1248 10636,1220 10636,1189 10606,1160 10553,1160 10460,1160 10434,1232 10434,1263 10434,1317 10486,1328 10506,1332 10543,1339 10579,1347 10579,1385 10579,1404 10563,1463 10479,1463 10469,1463 10415,1463 10399,1425 10425,1429 10443,1408 10443,1388 10443,1372 10432,1364 10417,1364 10399,1364 10378,1378 10378,1410 10378,1450 10418,1478 10478,1478 10592,1478 10619,1393 10619,1362 10619,1336 10606,1319 10598,1310 10579,1291 10558,1287 10527,1281 10502,1275 10474,1270 10474,1239 10474,1218 10491,1176 10553,1176 10570,1176 10605,1180 10616,1208 L 10616,1208 Z"/>
           <path fill="rgb(0,0,0)" stroke="none" d="M 10813,1470 C 10813,1423 10796,1396 10768,1396 10745,1396 10731,1413 10731,1433 10731,1452 10745,1470 10768,1470 10777,1470 10786,1468 10793,1461 10795,1460 10796,1459 10796,1459 10797,1459 10798,1460 10798,1470 10798,1522 10773,1564 10750,1587 10742,1595 10742,1596 10742,1598 10742,1603 10746,1606 10749,1606 10757,1606 10813,1552 10813,1470 L 10813,1470 Z"/>
           <path fill="rgb(0,0,0)" stroke="none" d="M 11245,1205 C 11232,1179 11212,1160 11180,1160 11098,1160 11011,1263 11011,1366 11011,1432 11050,1478 11104,1478 11118,1478 11154,1475 11196,1425 11201,1455 11226,1478 11260,1478 11284,1478 11300,1462 11312,1439 11324,1414 11333,1371 11333,1370 11333,1363 11326,1363 11324,1363 11317,1363 11317,1366 11314,1376 11302,1421 11290,1463 11261,1463 11242,1463 11240,1444 11240,1430 11240,1415 11241,1409 11249,1378 11257,1349 11258,1342 11265,1315 L 11290,1217 C 11295,1197 11295,1196 11295,1193 11295,1181 11286,1174 11274,1174 11258,1174 11247,1190 11245,1205 L 11245,1205 Z M 11199,1387 C 11196,1399 11196,1401 11185,1413 11154,1451 11125,1463 11106,1463 11071,1463 11061,1424 11061,1397 11061,1362 11083,1275 11099,1243 11121,1201 11153,1176 11181,1176 11227,1176 11236,1233 11236,1237 11236,1242 11235,1246 11234,1249 L 11199,1387 11199,1387 Z"/>
           <path fill="rgb(0,0,0)" stroke="none" d="M 11557,1295 C 11557,1240 11550,1155 11511,1076 11469,990 11408,944 11401,944 11397,944 11394,947 11394,951 11394,953 11394,954 11408,967 11476,1037 11517,1148 11517,1295 11517,1415 11491,1538 11403,1627 11394,1635 11394,1637 11394,1639 11394,1643 11397,1646 11401,1646 11408,1646 11472,1598 11513,1509 11549,1432 11557,1354 11557,1295 L 11557,1295 Z"/>
           <path fill="rgb(0,0,0)" stroke="none" d="M 12305,1241 C 12316,1241 12329,1241 12329,1227 12329,1213 12316,1213 12306,1213 L 11885,1213 C 11875,1213 11862,1213 11862,1227 11862,1241 11875,1241 11886,1241 L 12305,1241 12305,1241 Z M 12306,1377 C 12316,1377 12329,1377 12329,1363 12329,1349 12316,1349 12305,1349 L 11886,1349 C 11875,1349 11862,1349 11862,1363 11862,1377 11875,1377 11885,1377 L 12306,1377 12306,1377 Z"/>
           <path fill="rgb(0,0,0)" stroke="none" d="M 14093,819 C 14098,714 14157,696 14181,696 14253,696 14260,791 14260,819 L 14093,819 14093,819 Z M 14093,833 L 14289,833 C 14304,833 14306,833 14306,819 14306,749 14268,681 14181,681 14099,681 14034,753 14034,841 14034,935 14108,1003 14189,1003 14275,1003 14306,925 14306,912 14306,905 14301,904 14297,904 14291,904 14289,908 14288,913 14263,986 14200,986 14193,986 14158,986 14130,965 14114,939 14093,905 14093,859 14093,833 L 14093,833 Z"/>
           <path fill="rgb(0,0,0)" stroke="none" d="M 14529,831 C 14550,804 14576,769 14593,751 14615,726 14644,715 14677,715 L 14677,693 C 14659,694 14638,695 14619,695 14598,695 14561,694 14552,693 L 14552,715 C 14567,716 14572,725 14572,736 14572,748 14565,757 14562,761 L 14518,816 14463,745 C 14457,738 14457,736 14457,732 14457,722 14468,715 14482,715 L 14482,693 C 14463,694 14417,695 14406,695 14391,695 14358,694 14339,693 L 14339,715 C 14388,715 14389,715 14422,758 L 14491,848 14425,932 C 14392,972 14350,974 14335,974 L 14335,995 C 14354,994 14375,993 14394,993 14414,993 14444,995 14461,995 L 14461,974 C 14445,972 14440,962 14440,952 14440,937 14461,913 14503,863 L 14557,933 C 14562,941 14572,952 14572,956 14572,962 14565,973 14546,974 L 14546,995 C 14567,995 14607,993 14622,993 14641,993 14669,994 14690,995 L 14690,974 C 14652,974 14639,972 14623,952 L 14529,831 14529,831 Z"/>
           <path fill="rgb(0,0,0)" stroke="none" d="M 14819,732 L 14819,685 14718,693 14718,715 C 14767,715 14772,719 14772,750 L 14772,1078 C 14772,1110 14765,1110 14718,1110 L 14718,1132 C 14741,1131 14778,1130 14796,1130 14815,1130 14851,1131 14876,1132 L 14876,1110 C 14829,1110 14821,1110 14821,1078 L 14821,960 14821,954 C 14824,965 14854,1003 14907,1003 14991,1003 15064,934 15064,844 15064,755 14996,685 14917,685 14862,685 14833,716 14819,732 L 14819,732 Z M 14821,915 L 14821,759 C 14841,723 14876,703 14912,703 14963,703 15006,765 15006,844 15006,929 14956,988 14904,988 14876,988 14850,974 14831,945 14821,930 14821,929 14821,915 L 14821,915 Z"/>
           <path fill="rgb(0,0,0)" stroke="none" d="M 15321,1164 C 15321,1162 15321,1160 15309,1148 15221,1060 15199,927 15199,820 15199,698 15225,576 15312,488 15321,480 15321,478 15321,476 15321,471 15318,469 15314,469 15307,469 15244,517 15202,606 15166,683 15158,761 15158,820 15158,875 15166,960 15204,1039 15246,1125 15307,1171 15314,1171 15318,1171 15321,1169 15321,1164 L 15321,1164 Z"/>
           <path fill="rgb(0,0,0)" stroke="none" d="M 15669,991 C 15778,950 15882,825 15882,689 15882,576 15807,501 15702,501 15551,501 15396,660 15396,823 15396,940 15475,1011 15576,1011 15593,1011 15617,1008 15645,1000 15642,1044 15642,1045 15642,1054 15642,1077 15642,1132 15700,1132 15784,1132 15818,1003 15818,995 15818,991 15813,988 15810,988 15804,988 15803,992 15801,996 15785,1046 15744,1064 15719,1064 15687,1064 15676,1045 15669,991 L 15669,991 Z M 15537,986 C 15482,964 15458,909 15458,846 15458,798 15476,698 15530,622 15581,550 15647,518 15698,518 15768,518 15820,573 15820,667 15820,737 15784,901 15666,967 15662,943 15655,892 15604,892 15567,892 15532,927 15532,963 15532,977 15537,985 15537,986 L 15537,986 Z M 15580,993 C 15570,993 15548,993 15548,963 15548,935 15574,907 15604,907 15634,907 15647,924 15647,967 15647,977 15646,978 15639,981 15621,988 15600,993 15580,993 L 15580,993 Z"/>
           <path fill="rgb(0,0,0)" stroke="none" d="M 16150,1164 C 16150,1162 16150,1160 16138,1148 16050,1060 16027,927 16027,820 16027,698 16054,576 16141,488 16150,480 16150,478 16150,476 16150,471 16147,469 16143,469 16136,469 16072,517 16031,606 15995,683 15987,761 15987,820 15987,875 15994,960 16033,1039 16075,1125 16136,1171 16143,1171 16147,1171 16150,1169 16150,1164 L 16150,1164 Z"/>
           <path fill="rgb(0,0,0)" stroke="none" d="M 16465,733 C 16445,734 16431,749 16431,765 16431,774 16438,785 16453,785 16469,785 16486,773 16486,746 16486,714 16455,685 16402,685 16309,685 16283,757 16283,788 16283,842 16335,853 16355,857 16392,864 16429,872 16429,911 16429,929 16412,988 16328,988 16318,988 16264,988 16248,951 16275,954 16292,933 16292,913 16292,897 16281,889 16266,889 16248,889 16227,904 16227,935 16227,975 16267,1003 16327,1003 16441,1003 16469,918 16469,887 16469,861 16455,844 16447,835 16428,816 16408,812 16377,806 16351,800 16323,795 16323,764 16323,743 16340,701 16402,701 16419,701 16455,706 16465,733 L 16465,733 Z"/>
           <path fill="rgb(0,0,0)" stroke="none" d="M 16662,995 C 16662,948 16645,921 16617,921 16594,921 16580,939 16580,958 16580,977 16594,995 16617,995 16626,995 16635,993 16642,986 16644,985 16645,984 16646,984 16646,984 16647,985 16647,995 16647,1047 16622,1089 16599,1112 16591,1120 16591,1121 16591,1123 16591,1128 16595,1131 16598,1131 16606,1131 16662,1077 16662,995 L 16662,995 Z"/>
           <path fill="rgb(0,0,0)" stroke="none" d="M 17094,730 C 17082,704 17061,685 17030,685 16947,685 16860,788 16860,891 16860,957 16899,1003 16954,1003 16968,1003 17003,1000 17045,951 17051,980 17075,1003 17109,1003 17134,1003 17150,987 17161,965 17173,939 17182,896 17182,895 17182,888 17176,888 17174,888 17167,888 17166,891 17164,901 17152,946 17139,988 17110,988 17091,988 17089,969 17089,955 17089,940 17091,934 17098,904 17106,874 17108,867 17114,840 L 17139,742 C 17144,722 17144,721 17144,718 17144,706 17136,699 17124,699 17107,699 17096,715 17094,730 L 17094,730 Z M 17049,912 C 17045,925 17045,926 17034,938 17004,977 16975,988 16955,988 16920,988 16910,949 16910,922 16910,887 16933,800 16949,768 16971,727 17002,701 17030,701 17076,701 17086,758 17086,762 17086,767 17084,771 17084,774 L 17049,912 17049,912 Z"/>
           <path fill="rgb(0,0,0)" stroke="none" d="M 17407,820 C 17407,765 17399,680 17360,601 17318,515 17258,469 17251,469 17246,469 17244,472 17244,476 17244,478 17244,480 17257,492 17326,562 17366,673 17366,820 17366,940 17340,1064 17253,1152 17244,1160 17244,1162 17244,1164 17244,1168 17246,1171 17251,1171 17258,1171 17321,1123 17362,1034 17398,957 17407,879 17407,820 L 17407,820 Z"/>
           <path fill="rgb(0,0,0)" stroke="none" d="M 17680,820 C 17680,765 17672,680 17634,601 17591,515 17531,469 17524,469 17520,469 17517,472 17517,476 17517,478 17517,480 17530,492 17599,562 17639,673 17639,820 17639,940 17613,1064 17526,1152 17517,1160 17517,1162 17517,1164 17517,1168 17520,1171 17524,1171 17531,1171 17594,1123 17636,1034 17671,957 17680,879 17680,820 L 17680,820 Z"/>
           <path fill="rgb(0,0,0)" stroke="none" d="M 15882,1309 L 12649,1309 12649,1281 19116,1281 19116,1309 15882,1309 Z"/>
           <path fill="rgb(0,0,0)" stroke="none" d="M 12840,2011 C 12831,2126 12805,2158 12765,2158 12756,2158 12735,2155 12720,2143 12741,2140 12746,2124 12746,2114 12746,2094 12731,2085 12718,2085 12704,2085 12688,2094 12688,2115 12688,2148 12723,2173 12765,2173 12832,2173 12866,2112 12881,2049 12890,2012 12916,1808 12921,1730 L 12935,1555 C 12945,1426 12968,1409 13000,1409 13007,1409 13029,1410 13044,1423 13024,1426 13018,1442 13018,1452 13018,1472 13034,1482 13047,1482 13061,1482 13077,1472 13077,1451 13077,1418 13042,1393 12999,1393 12933,1393 12905,1461 12893,1515 12885,1553 12860,1751 12853,1836 L 12840,2011 12840,2011 Z"/>
           <path fill="rgb(0,0,0)" stroke="none" d="M 13313,1782 C 13317,1677 13376,1660 13400,1660 13473,1660 13480,1754 13480,1782 L 13313,1782 13313,1782 Z M 13312,1796 L 13508,1796 C 13524,1796 13526,1796 13526,1782 13526,1712 13488,1644 13400,1644 13319,1644 13254,1716 13254,1804 13254,1898 13328,1966 13409,1966 13494,1966 13526,1888 13526,1875 13526,1868 13520,1867 13517,1867 13511,1867 13509,1871 13508,1876 13483,1949 13420,1949 13413,1949 13378,1949 13350,1928 13333,1902 13312,1868 13312,1822 13312,1796 L 13312,1796 Z"/>
           <path fill="rgb(0,0,0)" stroke="none" d="M 13748,1794 C 13769,1767 13796,1733 13813,1714 13835,1689 13864,1679 13897,1678 L 13897,1656 C 13878,1657 13857,1658 13839,1658 13818,1658 13781,1657 13772,1656 L 13772,1678 C 13786,1679 13792,1688 13792,1700 13792,1711 13785,1720 13781,1724 L 13738,1779 13683,1708 C 13677,1701 13677,1700 13677,1695 13677,1685 13687,1679 13701,1678 L 13701,1656 C 13683,1657 13637,1658 13625,1658 13611,1658 13578,1657 13559,1656 L 13559,1678 C 13608,1678 13609,1679 13642,1721 L 13711,1811 13645,1895 C 13611,1935 13570,1937 13555,1937 L 13555,1959 C 13573,1957 13595,1956 13613,1956 13634,1956 13663,1958 13680,1959 L 13680,1937 C 13665,1935 13660,1926 13660,1915 13660,1900 13680,1876 13723,1826 L 13776,1896 C 13782,1904 13791,1915 13791,1919 13791,1926 13785,1936 13766,1937 L 13766,1959 C 13787,1958 13826,1956 13842,1956 13861,1956 13888,1957 13909,1959 L 13909,1937 C 13871,1937 13859,1935 13843,1915 L 13748,1794 13748,1794 Z"/>
           <path fill="rgb(0,0,0)" stroke="none" d="M 14038,1695 L 14038,1648 13937,1656 13937,1678 C 13987,1678 13992,1682 13992,1713 L 13992,2041 C 13992,2073 13984,2073 13937,2073 L 13937,2095 C 13961,2094 13998,2093 14016,2093 14035,2093 14071,2094 14095,2095 L 14095,2073 C 14048,2073 14041,2073 14041,2041 L 14041,1923 14041,1917 C 14044,1928 14074,1966 14127,1966 14211,1966 14284,1898 14284,1807 14284,1718 14215,1648 14137,1648 14082,1648 14052,1679 14038,1695 L 14038,1695 Z M 14041,1879 L 14041,1722 C 14061,1686 14095,1666 14131,1666 14182,1666 14225,1728 14225,1807 14225,1892 14176,1951 14124,1951 14096,1951 14069,1937 14050,1908 14041,1893 14041,1893 14041,1879 L 14041,1879 Z"/>
           <path fill="rgb(0,0,0)" stroke="none" d="M 14541,2127 C 14541,2125 14541,2124 14529,2112 14441,2023 14418,1891 14418,1783 14418,1661 14445,1539 14531,1451 14541,1443 14541,1441 14541,1439 14541,1434 14538,1432 14534,1432 14526,1432 14463,1480 14422,1569 14386,1646 14378,1724 14378,1783 14378,1838 14385,1923 14424,2002 14466,2088 14526,2134 14534,2134 14538,2134 14541,2132 14541,2127 L 14541,2127 Z"/>
           <path fill="rgb(0,0,0)" stroke="none" d="M 14889,1954 C 14998,1913 15101,1788 15101,1653 15101,1540 15027,1464 14922,1464 14770,1464 14616,1623 14616,1787 14616,1903 14694,1974 14796,1974 14813,1974 14837,1971 14864,1964 14862,2007 14862,2008 14862,2018 14862,2040 14862,2095 14920,2095 15004,2095 15037,1966 15037,1959 15037,1954 15032,1952 15030,1952 15024,1952 15023,1955 15021,1959 15004,2009 14963,2027 14939,2027 14907,2027 14896,2008 14889,1954 L 14889,1954 Z M 14756,1949 C 14701,1927 14677,1872 14677,1809 14677,1761 14696,1661 14749,1585 14800,1514 14867,1481 14918,1481 14988,1481 15039,1536 15039,1630 15039,1700 15004,1865 14885,1931 14882,1906 14875,1855 14824,1855 14786,1855 14752,1890 14752,1926 14752,1940 14756,1948 14756,1949 L 14756,1949 Z M 14800,1956 C 14790,1956 14767,1956 14767,1926 14767,1898 14794,1870 14824,1870 14853,1870 14867,1887 14867,1930 14867,1940 14866,1941 14859,1944 14841,1952 14819,1956 14800,1956 L 14800,1956 Z"/>
           <path fill="rgb(0,0,0)" stroke="none" d="M 15369,2127 C 15369,2125 15369,2124 15357,2112 15270,2023 15247,1891 15247,1783 15247,1661 15274,1539 15360,1451 15369,1443 15369,1441 15369,1439 15369,1434 15367,1432 15362,1432 15355,1432 15292,1480 15251,1569 15215,1646 15206,1724 15206,1783 15206,1838 15214,1923 15253,2002 15295,2088 15355,2134 15362,2134 15367,2134 15369,2132 15369,2127 L 15369,2127 Z"/>
           <path fill="rgb(0,0,0)" stroke="none" d="M 15685,1696 C 15665,1697 15651,1712 15651,1728 15651,1737 15657,1748 15673,1748 15688,1748 15705,1736 15705,1709 15705,1677 15675,1648 15622,1648 15529,1648 15503,1720 15503,1751 15503,1806 15555,1816 15575,1820 15612,1827 15648,1835 15648,1874 15648,1892 15632,1951 15548,1951 15538,1951 15484,1951 15468,1914 15494,1917 15512,1896 15512,1876 15512,1860 15501,1852 15486,1852 15468,1852 15447,1867 15447,1898 15447,1938 15487,1966 15547,1966 15661,1966 15688,1881 15688,1850 15688,1825 15675,1807 15667,1799 15648,1779 15627,1775 15596,1769 15571,1763 15543,1759 15543,1727 15543,1707 15560,1664 15622,1664 15639,1664 15674,1669 15685,1696 L 15685,1696 Z"/>
           <path fill="rgb(0,0,0)" stroke="none" d="M 15882,1524 C 15886,1516 15886,1512 15886,1508 15886,1493 15873,1481 15857,1481 15839,1481 15833,1496 15830,1504 L 15765,1717 C 15765,1718 15763,1724 15763,1725 15763,1731 15778,1736 15782,1736 15786,1736 15786,1735 15790,1727 L 15882,1524 15882,1524 Z"/>
           <path fill="rgb(0,0,0)" stroke="none" d="M 16079,1958 C 16079,1912 16062,1884 16034,1884 16011,1884 15997,1902 15997,1921 15997,1940 16011,1959 16034,1959 16043,1959 16052,1956 16059,1949 16061,1948 16062,1947 16062,1947 16063,1947 16064,1948 16064,1958 16064,2010 16039,2052 16016,2075 16008,2083 16008,2084 16008,2086 16008,2091 16012,2094 16015,2094 16023,2094 16079,2040 16079,1958 L 16079,1958 Z"/>
           <path fill="rgb(0,0,0)" stroke="none" d="M 16511,1693 C 16498,1667 16478,1648 16446,1648 16364,1648 16277,1752 16277,1854 16277,1920 16316,1966 16370,1966 16385,1966 16420,1964 16462,1914 16467,1943 16492,1966 16526,1966 16550,1966 16567,1950 16578,1928 16590,1902 16599,1860 16599,1858 16599,1851 16593,1851 16590,1851 16583,1851 16583,1854 16581,1864 16569,1909 16556,1951 16527,1951 16508,1951 16506,1933 16506,1919 16506,1903 16507,1898 16515,1867 16523,1837 16524,1830 16531,1803 L 16556,1705 C 16561,1686 16561,1684 16561,1681 16561,1669 16552,1662 16541,1662 16524,1662 16513,1678 16511,1693 L 16511,1693 Z M 16465,1875 C 16462,1888 16462,1889 16451,1901 16420,1940 16392,1951 16372,1951 16337,1951 16327,1912 16327,1885 16327,1850 16349,1763 16366,1731 16387,1690 16419,1664 16447,1664 16493,1664 16503,1721 16503,1726 16503,1730 16501,1734 16500,1737 L 16465,1875 16465,1875 Z"/>
           <path fill="rgb(0,0,0)" stroke="none" d="M 16763,1524 C 16767,1516 16767,1512 16767,1508 16767,1493 16754,1481 16738,1481 16720,1481 16714,1496 16711,1504 L 16646,1717 C 16646,1718 16644,1724 16644,1725 16644,1731 16659,1736 16663,1736 16667,1736 16667,1735 16671,1727 L 16763,1524 16763,1524 Z"/>
           <path fill="rgb(0,0,0)" stroke="none" d="M 17021,1783 C 17021,1728 17013,1643 16974,1564 16932,1478 16872,1432 16865,1432 16860,1432 16858,1435 16858,1439 16858,1441 16858,1443 16871,1455 16940,1525 16980,1636 16980,1783 16980,1903 16954,2027 16867,2115 16858,2124 16858,2125 16858,2127 16858,2131 16860,2134 16865,2134 16872,2134 16935,2086 16976,1997 17012,1920 17021,1842 17021,1783 L 17021,1783 Z"/>
           <path fill="rgb(0,0,0)" stroke="none" d="M 17294,1783 C 17294,1728 17286,1643 17247,1564 17205,1478 17145,1432 17138,1432 17134,1432 17131,1435 17131,1439 17131,1441 17131,1443 17144,1455 17213,1525 17253,1636 17253,1783 17253,1903 17227,2027 17140,2115 17131,2124 17131,2125 17131,2127 17131,2131 17134,2134 17138,2134 17145,2134 17208,2086 17250,1997 17285,1920 17294,1842 17294,1783 L 17294,1783 Z"/>
           <path fill="rgb(0,0,0)" stroke="none" d="M 17727,1479 C 17727,1478 17727,1471 17718,1471 17707,1471 17640,1478 17628,1479 17623,1480 17618,1483 17618,1492 17618,1501 17625,1501 17635,1501 17669,1501 17670,1506 17670,1513 L 17668,1527 17626,1693 C 17614,1667 17593,1648 17562,1648 17479,1648 17392,1752 17392,1854 17392,1920 17431,1966 17486,1966 17500,1966 17535,1964 17577,1914 17583,1943 17607,1966 17641,1966 17666,1966 17682,1950 17693,1928 17705,1902 17714,1860 17714,1858 17714,1851 17708,1851 17706,1851 17699,1851 17698,1854 17696,1864 17684,1909 17671,1951 17642,1951 17623,1951 17621,1933 17621,1919 17621,1902 17623,1897 17625,1885 L 17727,1479 17727,1479 Z M 17580,1875 C 17577,1888 17577,1889 17566,1901 17535,1940 17507,1951 17487,1951 17452,1951 17442,1912 17442,1885 17442,1850 17465,1763 17481,1731 17502,1690 17534,1664 17562,1664 17608,1664 17618,1721 17618,1726 17618,1730 17616,1734 17616,1737 L 17580,1875 17580,1875 Z"/>
           <path fill="rgb(0,0,0)" stroke="none" d="M 17942,1879 C 17929,1882 17921,1892 17921,1902 17921,1914 17931,1918 17937,1918 17942,1918 17961,1915 17961,1890 17961,1858 17926,1847 17896,1847 17819,1847 17805,1904 17805,1919 17805,1937 17815,1949 17822,1955 17835,1965 17844,1967 17878,1972 17888,1974 17920,1980 17920,2005 17920,2013 17914,2032 17894,2044 17874,2055 17850,2055 17844,2055 17825,2055 17797,2051 17785,2034 17802,2032 17812,2020 17812,2006 17812,1994 17804,1988 17793,1988 17779,1988 17765,2000 17765,2021 17765,2051 17796,2069 17844,2069 17934,2069 17951,2007 17951,1988 17951,1943 17901,1934 17883,1930 17879,1929 17867,1927 17864,1926 17845,1923 17837,1913 17837,1902 17837,1890 17845,1877 17856,1870 17869,1862 17887,1861 17895,1861 17905,1861 17931,1862 17942,1879 L 17942,1879 Z"/>
           <path fill="rgb(0,0,0)" stroke="none" d="M 18122,1760 C 18122,1760 18125,1753 18125,1748 18125,1735 18114,1727 18103,1727 18089,1727 18085,1738 18083,1743 L 18029,1895 C 18028,1900 18028,1901 18028,1901 18028,1907 18042,1910 18043,1910 18046,1910 18047,1908 18049,1904 L 18122,1760 18122,1760 Z"/>
           <path fill="rgb(0,0,0)" stroke="none" d="M 18583,1479 C 18583,1478 18583,1471 18574,1471 18563,1471 18496,1478 18484,1479 18479,1480 18475,1483 18475,1492 18475,1501 18481,1501 18491,1501 18525,1501 18527,1506 18527,1513 L 18525,1527 18482,1693 C 18470,1667 18449,1648 18418,1648 18335,1648 18248,1752 18248,1854 18248,1920 18287,1966 18342,1966 18356,1966 18391,1964 18433,1914 18439,1943 18463,1966 18497,1966 18522,1966 18538,1950 18549,1928 18561,1902 18570,1860 18570,1858 18570,1851 18564,1851 18562,1851 18555,1851 18554,1854 18552,1864 18540,1909 18527,1951 18499,1951 18480,1951 18477,1933 18477,1919 18477,1902 18479,1897 18482,1885 L 18583,1479 18583,1479 Z M 18437,1875 C 18433,1888 18433,1889 18423,1901 18392,1940 18363,1951 18343,1951 18308,1951 18298,1912 18298,1885 18298,1850 18321,1763 18337,1731 18359,1690 18390,1664 18418,1664 18464,1664 18474,1721 18474,1726 18474,1730 18473,1734 18472,1737 L 18437,1875 18437,1875 Z"/>
           <path fill="rgb(0,0,0)" stroke="none" d="M 18794,1876 C 18783,1860 18767,1847 18743,1847 18680,1847 18616,1916 18616,1987 18616,2035 18648,2069 18690,2069 18717,2069 18740,2054 18760,2034 18769,2064 18798,2069 18811,2069 18828,2069 18841,2058 18850,2043 18860,2024 18867,1996 18867,1994 18867,1987 18860,1987 18859,1987 18852,1987 18852,1989 18848,2002 18842,2026 18833,2055 18812,2055 18799,2055 18796,2044 18796,2031 18796,2023 18800,2005 18803,1992 18807,1979 18812,1959 18814,1948 L 18824,1911 C 18827,1898 18833,1875 18833,1872 18833,1861 18824,1857 18816,1857 18808,1857 18797,1862 18794,1876 L 18794,1876 Z M 18762,2002 C 18759,2016 18748,2026 18737,2035 18733,2039 18713,2055 18692,2055 18674,2055 18656,2042 18656,2007 18656,1981 18670,1927 18681,1908 18704,1868 18729,1861 18743,1861 18777,1861 18787,1898 18787,1904 18787,1906 18786,1909 18785,1911 L 18762,2002 18762,2002 Z"/>
           <path fill="rgb(0,0,0)" stroke="none" d="M 19017,1760 C 19018,1760 19021,1753 19021,1748 19021,1735 19010,1727 18999,1727 18985,1727 18981,1738 18979,1743 L 18925,1895 C 18923,1900 18923,1901 18923,1901 18923,1907 18938,1910 18939,1910 18942,1910 18942,1908 18945,1904 L 19017,1760 19017,1760 Z"/>
          </g>
         </g>
        </g>
       </g>
       <g class="Group">
        <g class="Graphic">
         <g id="id23">
          <rect class="BoundingBox" stroke="none" fill="none" x="18504" y="8574" width="349" height="317"/>
          <defs>
           <clipPath id="clip_path_3" clipPathUnits="userSpaceOnUse">
            <path d="M 18504,8574 L 18852,8574 18852,8890 18504,8890 18504,8574 Z"/>
           </clipPath>
          </defs>
          <g clip-path="url(#clip_path_3)">
           <path fill="rgb(0,0,0)" stroke="none" d="M 18765,8619 C 18752,8593 18732,8574 18700,8574 18619,8574 18532,8677 18532,8778 18532,8844 18570,8890 18625,8890 18639,8890 18674,8887 18716,8838 18721,8867 18746,8890 18779,8890 18804,8890 18820,8874 18831,8852 18843,8827 18852,8784 18852,8783 18852,8776 18846,8776 18844,8776 18837,8776 18836,8778 18834,8788 18822,8833 18809,8875 18781,8875 18762,8875 18760,8857 18760,8843 18760,8827 18761,8822 18769,8791 18777,8762 18778,8755 18784,8728 L 18809,8631 C 18814,8611 18814,8610 18814,8607 18814,8595 18806,8588 18794,8588 18777,8588 18767,8603 18765,8619 L 18765,8619 Z M 18719,8799 C 18716,8812 18716,8813 18705,8825 18675,8863 18646,8875 18626,8875 18591,8875 18582,8836 18582,8809 18582,8774 18604,8688 18620,8656 18642,8615 18673,8589 18701,8589 18746,8589 18756,8647 18756,8651 18756,8655 18755,8659 18754,8663 L 18719,8799 18719,8799 Z"/>
          </g>
         </g>
        </g>
       </g>
      </g>
     </g>
    </g>
   </g>
  </g>
 </g>
</svg>