<?xml version="1.0" encoding="UTF-8"?>
<!DOCTYPE svg PUBLIC "-//W3C//DTD SVG 1.1//EN" "http://www.w3.org/Graphics/SVG/1.1/DTD/svg11.dtd">
<svg version="1.2" width="188mm" height="64mm" viewBox="0 0 18800 6400" preserveAspectRatio="xMidYMid" fill-rule="evenodd" stroke-width="28.222" stroke-linejoin="round" xmlns="http://www.w3.org/2000/svg" xmlns:ooo="http://xml.openoffice.org/svg/export" xmlns:xlink="http://www.w3.org/1999/xlink" xmlns:presentation="http://sun.com/xmlns/staroffice/presentation" xmlns:smil="http://www.w3.org/2001/SMIL20/" xmlns:anim="urn:oasis:names:tc:opendocument:xmlns:animation:1.0" xml:space="preserve">
 <defs class="ClipPathGroup">
  <clipPath id="presentation_clip_path" clipPathUnits="userSpaceOnUse">
   <rect x="0" y="0" width="18800" height="6400"/>
  </clipPath>
  <clipPath id="presentation_clip_path_shrink" clipPathUnits="userSpaceOnUse">
   <rect x="18" y="6" width="18763" height="6388"/>
  </clipPath>
 </defs>
 <defs class="TextShapeIndex">
  <g ooo:slide="id1" ooo:id-list="id3 id4 id5 id6 id7 id8 id9 id10 id11 id12 id13 id14 id15 id16 id17 id18 id19 id20 id21 id22"/>
 </defs>
 <defs class="EmbeddedBulletChars">
  <g id="bullet-char-template-57356" transform="scale(0.00048828125,-0.00048828125)">
   <path d="M 580,1141 L 1163,571 580,0 -4,571 580,1141 Z"/>
  </g>
  <g id="bullet-char-template-57354" transform="scale(0.00048828125,-0.00048828125)">
   <path d="M 8,1128 L 1137,1128 1137,0 8,0 8,1128 Z"/>
  </g>
  <g id="bullet-char-template-10146" transform="scale(0.00048828125,-0.00048828125)">
   <path d="M 174,0 L 602,739 174,1481 1456,739 174,0 Z M 1358,739 L 309,1346 659,739 1358,739 Z"/>
  </g>
  <g id="bullet-char-template-10132" transform="scale(0.00048828125,-0.00048828125)">
   <path d="M 2015,739 L 1276,0 717,0 1260,543 174,543 174,936 1260,936 717,1481 1274,1481 2015,739 Z"/>
  </g>
  <g id="bullet-char-template-10007" transform="scale(0.00048828125,-0.00048828125)">
   <path d="M 0,-2 C -7,14 -16,27 -25,37 L 356,567 C 262,823 215,952 215,954 215,979 228,992 255,992 264,992 276,990 289,987 310,991 331,999 354,1012 L 381,999 492,748 772,1049 836,1024 860,1049 C 881,1039 901,1025 922,1006 886,937 835,863 770,784 769,783 710,716 594,584 L 774,223 C 774,196 753,168 711,139 L 727,119 C 717,90 699,76 672,76 641,76 570,178 457,381 L 164,-76 C 142,-110 111,-127 72,-127 30,-127 9,-110 8,-76 1,-67 -2,-52 -2,-32 -2,-23 -1,-13 0,-2 Z"/>
  </g>
  <g id="bullet-char-template-10004" transform="scale(0.00048828125,-0.00048828125)">
   <path d="M 285,-33 C 182,-33 111,30 74,156 52,228 41,333 41,471 41,549 55,616 82,672 116,743 169,778 240,778 293,778 328,747 346,684 L 369,508 C 377,444 397,411 428,410 L 1163,1116 C 1174,1127 1196,1133 1229,1133 1271,1133 1292,1118 1292,1087 L 1292,965 C 1292,929 1282,901 1262,881 L 442,47 C 390,-6 338,-33 285,-33 Z"/>
  </g>
  <g id="bullet-char-template-9679" transform="scale(0.00048828125,-0.00048828125)">
   <path d="M 813,0 C 632,0 489,54 383,161 276,268 223,411 223,592 223,773 276,916 383,1023 489,1130 632,1184 813,1184 992,1184 1136,1130 1245,1023 1353,916 1407,772 1407,592 1407,412 1353,268 1245,161 1136,54 992,0 813,0 Z"/>
  </g>
  <g id="bullet-char-template-8226" transform="scale(0.00048828125,-0.00048828125)">
   <path d="M 346,457 C 273,457 209,483 155,535 101,586 74,649 74,723 74,796 101,859 155,911 209,963 273,989 346,989 419,989 480,963 531,910 582,859 608,796 608,723 608,648 583,586 532,535 482,483 420,457 346,457 Z"/>
  </g>
  <g id="bullet-char-template-8211" transform="scale(0.00048828125,-0.00048828125)">
   <path d="M -4,459 L 1135,459 1135,606 -4,606 -4,459 Z"/>
  </g>
  <g id="bullet-char-template-61548" transform="scale(0.00048828125,-0.00048828125)">
   <path d="M 173,740 C 173,903 231,1043 346,1159 462,1274 601,1332 765,1332 928,1332 1067,1274 1183,1159 1299,1043 1357,903 1357,740 1357,577 1299,437 1183,322 1067,206 928,148 765,148 601,148 462,206 346,322 231,437 173,577 173,740 Z"/>
  </g>
 </defs>
 <g>
  <g id="id2" class="Master_Slide">
   <g id="bg-id2" class="Background"/>
   <g id="bo-id2" class="BackgroundObjects"/>
  </g>
 </g>
 <g class="SlideGroup">
  <g>
   <g id="container-id1">
    <g id="id1" class="Slide" clip-path="url(#presentation_clip_path)">
     <g class="Page">
      <g class="Group">
       <g class="com.sun.star.drawing.CustomShape">
        <g id="id3">
         <rect class="BoundingBox" stroke="none" fill="none" x="2591" y="447" width="7624" height="1655"/>
         <path fill="rgb(221,221,221)" fill-opacity="0.502" stroke="rgb(255,255,255)" stroke-opacity="0.502" d="M 10213,1274 C 10213,1419 10037,1561 9702,1687 9368,1813 8887,1917 8308,1989 7728,2062 7071,2100 6403,2100 5734,2100 5077,2062 4497,1989 3918,1917 3437,1813 3103,1687 2768,1561 2592,1419 2592,1274 2592,1129 2768,987 3103,861 3437,735 3918,631 4497,559 5077,486 5734,448 6402,448 7071,448 7728,486 8308,559 8887,631 9368,735 9702,861 10037,987 10213,1129 10213,1274 L 10213,1274 Z"/>
         <path fill="none" stroke="rgb(17,17,17)" d="M 10213,1274 C 10213,1419 10037,1561 9702,1687 9368,1813 8887,1917 8308,1989 7728,2062 7071,2100 6403,2100 5734,2100 5077,2062 4497,1989 3918,1917 3437,1813 3103,1687 2768,1561 2592,1419 2592,1274 2592,1129 2768,987 3103,861 3437,735 3918,631 4497,559 5077,486 5734,448 6402,448 7071,448 7728,486 8308,559 8887,631 9368,735 9702,861 10037,987 10213,1129 10213,1274 L 10213,1274 Z"/>
        </g>
       </g>
       <g class="com.sun.star.drawing.CustomShape">
        <g id="id4">
         <rect class="BoundingBox" stroke="none" fill="none" x="3886" y="884" width="2798" height="949"/>
         <path fill="rgb(114,159,207)" fill-opacity="0.502" stroke="rgb(255,255,255)" stroke-opacity="0.502" d="M 6682,1358 C 6682,1441 6617,1523 6495,1595 6372,1666 6196,1726 5983,1768 5771,1809 5530,1831 5285,1831 5039,1831 4798,1809 4586,1768 4373,1726 4197,1666 4074,1595 3952,1523 3887,1441 3887,1358 3887,1275 3952,1193 4074,1122 4197,1050 4373,990 4586,948 4798,907 5039,885 5284,885 5530,885 5771,907 5983,948 6196,990 6372,1050 6495,1121 6617,1193 6682,1275 6682,1358 L 6682,1358 Z"/>
         <path fill="none" stroke="rgb(17,17,17)" d="M 6682,1358 C 6682,1441 6617,1523 6495,1595 6372,1666 6196,1726 5983,1768 5771,1809 5530,1831 5285,1831 5039,1831 4798,1809 4586,1768 4373,1726 4197,1666 4074,1595 3952,1523 3887,1441 3887,1358 3887,1275 3952,1193 4074,1122 4197,1050 4373,990 4586,948 4798,907 5039,885 5284,885 5530,885 5771,907 5983,948 6196,990 6372,1050 6495,1121 6617,1193 6682,1275 6682,1358 L 6682,1358 Z"/>
        </g>
       </g>
       <g class="com.sun.star.drawing.CustomShape">
        <g id="id5">
         <rect class="BoundingBox" stroke="none" fill="none" x="5264" y="1338" width="103" height="102"/>
         <path fill="rgb(0,0,0)" stroke="none" d="M 5365,1389 C 5365,1397 5363,1406 5358,1414 5354,1421 5347,1428 5340,1432 5332,1437 5323,1439 5315,1439 5306,1439 5297,1437 5289,1432 5282,1428 5275,1421 5271,1414 5266,1406 5264,1397 5264,1389 5264,1380 5266,1371 5271,1363 5275,1356 5282,1349 5289,1345 5297,1340 5306,1338 5315,1338 5323,1338 5332,1340 5340,1345 5347,1349 5354,1356 5358,1363 5363,1371 5365,1380 5365,1389 L 5365,1389 Z"/>
        </g>
       </g>
       <g class="com.sun.star.drawing.CustomShape">
        <g id="id6">
         <rect class="BoundingBox" stroke="none" fill="none" x="2592" y="3447" width="7624" height="1655"/>
         <path fill="rgb(221,221,221)" fill-opacity="0.502" stroke="rgb(255,255,255)" stroke-opacity="0.502" d="M 10214,4274 C 10214,4419 10038,4561 9703,4687 9369,4813 8888,4917 8309,4989 7729,5062 7072,5100 6404,5100 5735,5100 5078,5062 4498,4989 3919,4917 3438,4813 3104,4687 2769,4561 2593,4419 2593,4274 2593,4129 2769,3987 3104,3861 3438,3735 3919,3631 4498,3559 5078,3486 5735,3448 6403,3448 7072,3448 7729,3486 8309,3559 8888,3631 9369,3735 9703,3861 10038,3987 10214,4129 10214,4274 L 10214,4274 Z"/>
         <path fill="none" stroke="rgb(17,17,17)" d="M 10214,4274 C 10214,4419 10038,4561 9703,4687 9369,4813 8888,4917 8309,4989 7729,5062 7072,5100 6404,5100 5735,5100 5078,5062 4498,4989 3919,4917 3438,4813 3104,4687 2769,4561 2593,4419 2593,4274 2593,4129 2769,3987 3104,3861 3438,3735 3919,3631 4498,3559 5078,3486 5735,3448 6403,3448 7072,3448 7729,3486 8309,3559 8888,3631 9369,3735 9703,3861 10038,3987 10214,4129 10214,4274 L 10214,4274 Z"/>
        </g>
       </g>
       <g class="com.sun.star.drawing.CustomShape">
        <g id="id7">
         <rect class="BoundingBox" stroke="none" fill="none" x="5536" y="3932" width="3179" height="893"/>
         <path fill="rgb(114,159,207)" fill-opacity="0.502" stroke="rgb(255,255,255)" stroke-opacity="0.502" d="M 8713,4378 C 8713,4456 8640,4533 8500,4601 8361,4668 8160,4724 7919,4763 7678,4802 7404,4823 7125,4823 6846,4823 6572,4802 6331,4763 6090,4724 5889,4668 5750,4601 5610,4533 5537,4456 5537,4378 5537,4300 5610,4223 5750,4156 5889,4088 6090,4032 6331,3993 6572,3954 6846,3933 7125,3933 7404,3933 7678,3954 7919,3993 8160,4032 8361,4088 8500,4156 8640,4223 8713,4300 8713,4378 L 8713,4378 Z"/>
         <path fill="none" stroke="rgb(17,17,17)" d="M 8713,4378 C 8713,4456 8640,4533 8500,4601 8361,4668 8160,4724 7919,4763 7678,4802 7404,4823 7125,4823 6846,4823 6572,4802 6331,4763 6090,4724 5889,4668 5750,4601 5610,4533 5537,4456 5537,4378 5537,4300 5610,4223 5750,4156 5889,4088 6090,4032 6331,3993 6572,3954 6846,3933 7125,3933 7404,3933 7678,3954 7919,3993 8160,4032 8361,4088 8500,4156 8640,4223 8713,4300 8713,4378 L 8713,4378 Z"/>
        </g>
       </g>
       <g class="com.sun.star.drawing.CustomShape">
        <g id="id8">
         <rect class="BoundingBox" stroke="none" fill="none" x="7065" y="4338" width="102" height="102"/>
         <path fill="rgb(0,0,0)" stroke="none" d="M 7166,4389 C 7166,4397 7164,4406 7159,4414 7155,4421 7148,4428 7141,4432 7133,4437 7124,4439 7116,4439 7107,4439 7098,4437 7090,4432 7083,4428 7076,4421 7072,4414 7067,4406 7065,4397 7065,4389 7065,4380 7067,4371 7072,4363 7076,4356 7083,4349 7090,4345 7098,4340 7107,4338 7116,4338 7124,4338 7133,4340 7141,4345 7148,4349 7155,4356 7159,4363 7164,4371 7166,4380 7166,4389 L 7166,4389 Z"/>
        </g>
       </g>
       <g class="com.sun.star.drawing.CustomShape">
        <g id="id9">
         <rect class="BoundingBox" stroke="none" fill="none" x="10846" y="3432" width="7624" height="1655"/>
         <path fill="rgb(221,221,221)" fill-opacity="0.502" stroke="rgb(255,255,255)" stroke-opacity="0.502" d="M 18468,4259 C 18468,4404 18292,4546 17957,4672 17623,4798 17142,4902 16563,4974 15983,5047 15326,5085 14658,5085 13989,5085 13332,5047 12752,4974 12173,4902 11692,4798 11358,4672 11023,4546 10847,4404 10847,4259 10847,4114 11023,3972 11358,3846 11692,3720 12173,3616 12752,3544 13332,3471 13989,3433 14657,3433 15326,3433 15983,3471 16563,3544 17142,3616 17623,3720 17957,3846 18292,3972 18468,4114 18468,4259 L 18468,4259 Z"/>
         <path fill="none" stroke="rgb(17,17,17)" d="M 18468,4259 C 18468,4404 18292,4546 17957,4672 17623,4798 17142,4902 16563,4974 15983,5047 15326,5085 14658,5085 13989,5085 13332,5047 12752,4974 12173,4902 11692,4798 11358,4672 11023,4546 10847,4404 10847,4259 10847,4114 11023,3972 11358,3846 11692,3720 12173,3616 12752,3544 13332,3471 13989,3433 14657,3433 15326,3433 15983,3471 16563,3544 17142,3616 17623,3720 17957,3846 18292,3972 18468,4114 18468,4259 L 18468,4259 Z"/>
        </g>
       </g>
       <g class="com.sun.star.drawing.CustomShape">
        <g id="id10">
         <rect class="BoundingBox" stroke="none" fill="none" x="13664" y="3916" width="3433" height="874"/>
         <path fill="rgb(255,191,0)" fill-opacity="0.502" stroke="rgb(255,255,255)" stroke-opacity="0.502" d="M 17095,4353 C 17095,4429 17016,4504 16865,4570 16715,4636 16498,4691 16238,4730 15977,4768 15681,4788 15380,4788 15079,4788 14783,4768 14523,4730 14262,4691 14045,4636 13895,4570 13744,4504 13665,4429 13665,4353 13665,4276 13744,4201 13895,4135 14045,4069 14262,4014 14522,3975 14783,3937 15079,3917 15380,3917 15681,3917 15977,3937 16237,3975 16498,4014 16715,4069 16865,4135 17016,4201 17095,4276 17095,4352 L 17095,4353 Z"/>
         <path fill="none" stroke="rgb(17,17,17)" d="M 17095,4353 C 17095,4429 17016,4504 16865,4570 16715,4636 16498,4691 16238,4730 15977,4768 15681,4788 15380,4788 15079,4788 14783,4768 14523,4730 14262,4691 14045,4636 13895,4570 13744,4504 13665,4429 13665,4353 13665,4276 13744,4201 13895,4135 14045,4069 14262,4014 14522,3975 14783,3937 15079,3917 15380,3917 15681,3917 15977,3937 16237,3975 16498,4014 16715,4069 16865,4135 17016,4201 17095,4276 17095,4352 L 17095,4353 Z"/>
        </g>
       </g>
       <g class="com.sun.star.drawing.CustomShape">
        <g id="id11">
         <rect class="BoundingBox" stroke="none" fill="none" x="15319" y="4323" width="102" height="102"/>
         <path fill="rgb(0,0,0)" stroke="none" d="M 15420,4374 C 15420,4382 15418,4391 15413,4399 15409,4406 15402,4413 15395,4417 15387,4422 15378,4424 15370,4424 15361,4424 15352,4422 15344,4417 15337,4413 15330,4406 15326,4399 15321,4391 15319,4382 15319,4374 15319,4365 15321,4356 15326,4348 15330,4341 15337,4334 15344,4330 15352,4325 15361,4323 15370,4323 15378,4323 15387,4325 15395,4330 15402,4334 15409,4341 15413,4348 15418,4356 15420,4365 15420,4374 L 15420,4374 Z"/>
        </g>
       </g>
       <g class="com.sun.star.drawing.CustomShape">
        <g id="id12">
         <rect class="BoundingBox" stroke="none" fill="none" x="10847" y="432" width="7624" height="1655"/>
         <path fill="rgb(221,221,221)" fill-opacity="0.502" stroke="rgb(255,255,255)" stroke-opacity="0.502" d="M 18469,1259 C 18469,1404 18293,1546 17958,1672 17624,1798 17143,1902 16564,1974 15984,2047 15327,2085 14659,2085 13990,2085 13333,2047 12753,1974 12174,1902 11693,1798 11359,1672 11024,1546 10848,1404 10848,1259 10848,1114 11024,972 11359,846 11693,720 12174,616 12753,544 13333,471 13990,433 14658,433 15327,433 15984,471 16564,544 17143,616 17624,720 17958,846 18293,972 18469,1114 18469,1259 L 18469,1259 Z"/>
         <path fill="none" stroke="rgb(17,17,17)" d="M 18469,1259 C 18469,1404 18293,1546 17958,1672 17624,1798 17143,1902 16564,1974 15984,2047 15327,2085 14659,2085 13990,2085 13333,2047 12753,1974 12174,1902 11693,1798 11359,1672 11024,1546 10848,1404 10848,1259 10848,1114 11024,972 11359,846 11693,720 12174,616 12753,544 13333,471 13990,433 14658,433 15327,433 15984,471 16564,544 17143,616 17624,720 17958,846 18293,972 18469,1114 18469,1259 L 18469,1259 Z"/>
        </g>
       </g>
       <g class="com.sun.star.drawing.CustomShape">
        <g id="id13">
         <rect class="BoundingBox" stroke="none" fill="none" x="11886" y="975" width="2163" height="755"/>
         <path fill="rgb(255,191,0)" fill-opacity="0.502" stroke="rgb(255,255,255)" stroke-opacity="0.502" d="M 14047,1352 C 14047,1418 13997,1483 13902,1540 13808,1597 13671,1645 13507,1678 13343,1711 13157,1728 12967,1728 12777,1728 12591,1711 12427,1678 12263,1645 12126,1597 12032,1540 11937,1483 11887,1418 11887,1352 11887,1286 11937,1221 12032,1164 12126,1107 12263,1059 12427,1026 12591,993 12777,976 12967,976 13157,976 13343,993 13507,1026 13671,1059 13808,1107 13902,1164 13997,1221 14047,1286 14047,1352 L 14047,1352 Z"/>
         <path fill="none" stroke="rgb(17,17,17)" d="M 14047,1352 C 14047,1418 13997,1483 13902,1540 13808,1597 13671,1645 13507,1678 13343,1711 13157,1728 12967,1728 12777,1728 12591,1711 12427,1678 12263,1645 12126,1597 12032,1540 11937,1483 11887,1418 11887,1352 11887,1286 11937,1221 12032,1164 12126,1107 12263,1059 12427,1026 12591,993 12777,976 12967,976 13157,976 13343,993 13507,1026 13671,1059 13808,1107 13902,1164 13997,1221 14047,1286 14047,1352 L 14047,1352 Z"/>
        </g>
       </g>
       <g class="com.sun.star.drawing.CustomShape">
        <g id="id14">
         <rect class="BoundingBox" stroke="none" fill="none" x="12820" y="1323" width="102" height="102"/>
         <path fill="rgb(0,0,0)" stroke="none" d="M 12921,1374 C 12921,1382 12919,1391 12914,1399 12910,1406 12903,1413 12896,1417 12888,1422 12879,1424 12871,1424 12862,1424 12853,1422 12845,1417 12838,1413 12831,1406 12827,1399 12822,1391 12820,1382 12820,1374 12820,1365 12822,1356 12827,1348 12831,1341 12838,1334 12845,1330 12853,1325 12862,1323 12871,1323 12879,1323 12888,1325 12896,1330 12903,1334 12910,1341 12914,1348 12919,1356 12921,1365 12921,1374 L 12921,1374 Z"/>
        </g>
       </g>
       <g class="Group">
        <g class="Graphic">
         <g id="id15">
          <rect class="BoundingBox" stroke="none" fill="none" x="4776" y="2537" width="4038" height="432"/>
          <defs>
           <clipPath id="clip_path_1" clipPathUnits="userSpaceOnUse">
            <path d="M 4776,2537 L 8813,2537 8813,2968 4776,2968 4776,2537 Z"/>
           </clipPath>
          </defs>
          <g clip-path="url(#clip_path_1)">
           <path fill="rgb(0,0,0)" stroke="none" d="M 4873,2715 C 4875,2706 4880,2690 4880,2688 4880,2681 4875,2677 4867,2677 4866,2677 4854,2677 4851,2692 L 4790,2936 C 4789,2941 4789,2942 4789,2942 4789,2949 4793,2954 4800,2954 4809,2954 4814,2946 4815,2945 4817,2941 4822,2919 4838,2854 4852,2866 4871,2868 4879,2868 4909,2868 4925,2849 4935,2837 4939,2856 4955,2868 4973,2868 4988,2868 4998,2858 5005,2844 5012,2829 5017,2804 5017,2803 5017,2799 5013,2799 5012,2799 5008,2799 5007,2800 5006,2806 4999,2833 4991,2858 4974,2858 4963,2858 4961,2847 4961,2839 4961,2830 4967,2810 4970,2795 L 4982,2750 C 4983,2743 4987,2727 4989,2721 4991,2712 4995,2696 4995,2693 4995,2685 4989,2682 4983,2682 4981,2682 4970,2682 4967,2696 L 4947,2775 C 4942,2796 4937,2814 4936,2818 4935,2820 4915,2858 4881,2858 4860,2858 4850,2844 4850,2822 4850,2809 4853,2798 4856,2786 L 4873,2715 4873,2715 Z"/>
           <path fill="rgb(0,0,0)" stroke="none" d="M 5170,2964 C 5170,2963 5170,2962 5162,2955 5110,2902 5096,2822 5096,2758 5096,2685 5112,2611 5164,2559 5170,2554 5170,2553 5170,2552 5170,2549 5168,2548 5165,2548 5161,2548 5123,2576 5098,2630 5077,2676 5072,2722 5072,2758 5072,2791 5076,2841 5100,2889 5125,2941 5161,2968 5165,2968 5168,2968 5170,2967 5170,2964 L 5170,2964 Z"/>
           <path fill="rgb(0,0,0)" stroke="none" d="M 5359,2706 C 5347,2706 5339,2715 5339,2725 5339,2730 5342,2737 5352,2737 5361,2737 5371,2730 5371,2713 5371,2694 5353,2677 5321,2677 5265,2677 5250,2720 5250,2738 5250,2771 5281,2778 5293,2780 5315,2784 5337,2789 5337,2812 5337,2823 5327,2858 5277,2858 5271,2858 5238,2858 5229,2836 5245,2838 5255,2825 5255,2814 5255,2804 5248,2799 5240,2799 5229,2799 5216,2808 5216,2827 5216,2851 5240,2868 5276,2868 5344,2868 5361,2817 5361,2798 5361,2783 5353,2772 5348,2767 5336,2755 5324,2753 5306,2749 5291,2746 5274,2743 5274,2724 5274,2712 5284,2686 5321,2686 5331,2686 5352,2689 5359,2706 L 5359,2706 Z"/>
           <path fill="rgb(0,0,0)" stroke="none" d="M 5490,2739 C 5490,2731 5490,2731 5482,2731 5463,2749 5436,2749 5424,2749 L 5424,2760 C 5431,2760 5450,2760 5467,2752 L 5467,2902 C 5467,2912 5467,2915 5437,2915 L 5426,2915 5426,2926 C 5431,2926 5467,2925 5478,2925 5488,2925 5525,2926 5531,2926 L 5531,2915 5520,2915 C 5490,2915 5490,2912 5490,2902 L 5490,2739 5490,2739 Z"/>
           <path fill="rgb(0,0,0)" stroke="none" d="M 5703,2758 C 5703,2725 5698,2674 5675,2627 5649,2575 5613,2548 5609,2548 5606,2548 5605,2549 5605,2552 5605,2553 5605,2554 5613,2561 5654,2603 5678,2670 5678,2758 5678,2830 5663,2904 5610,2957 5605,2962 5605,2963 5605,2964 5605,2966 5606,2968 5609,2968 5613,2968 5651,2939 5676,2886 5698,2840 5703,2793 5703,2758 L 5703,2758 Z"/>
           <path fill="rgb(0,0,0)" stroke="none" d="M 6011,2766 L 6128,2766 C 6134,2766 6142,2766 6142,2758 6142,2749 6134,2749 6128,2749 L 6011,2749 6011,2632 C 6011,2626 6011,2618 6002,2618 5994,2618 5994,2626 5994,2632 L 5994,2749 5876,2749 C 5870,2749 5862,2749 5862,2758 5862,2766 5870,2766 5876,2766 L 5994,2766 5994,2884 C 5994,2890 5994,2898 6002,2898 6011,2898 6011,2890 6011,2884 L 6011,2766 6011,2766 Z"/>
           <path fill="rgb(0,0,0)" stroke="none" d="M 6386,2768 C 6392,2768 6400,2768 6400,2761 6400,2755 6395,2755 6388,2755 L 6319,2755 C 6330,2719 6353,2695 6391,2695 L 6405,2695 C 6412,2695 6418,2695 6418,2688 6418,2682 6413,2682 6406,2682 L 6391,2682 C 6336,2682 6280,2724 6280,2788 6280,2834 6311,2868 6356,2868 6383,2868 6411,2851 6411,2846 6411,2845 6410,2840 6407,2840 6406,2840 6405,2840 6401,2843 6388,2851 6373,2858 6357,2858 6332,2858 6311,2841 6311,2804 6311,2789 6315,2773 6316,2768 L 6386,2768 6386,2768 Z"/>
           <path fill="rgb(0,0,0)" stroke="none" d="M 6530,2739 C 6530,2731 6529,2731 6521,2731 6502,2749 6475,2749 6463,2749 L 6463,2760 C 6470,2760 6490,2760 6506,2752 L 6506,2902 C 6506,2912 6506,2915 6477,2915 L 6465,2915 6465,2926 C 6471,2926 6507,2925 6518,2925 6527,2925 6564,2926 6571,2926 L 6571,2915 6559,2915 C 6530,2915 6530,2912 6530,2902 L 6530,2739 6530,2739 Z"/>
           <path fill="rgb(0,0,0)" stroke="none" d="M 7042,2722 C 7042,2713 7039,2709 7036,2709 7034,2709 7030,2712 7030,2720 7028,2760 7000,2783 6971,2783 6944,2783 6924,2765 6903,2747 6882,2728 6860,2709 6831,2709 6785,2709 6760,2755 6760,2793 6760,2807 6766,2807 6766,2807 6771,2807 6772,2798 6772,2797 6774,2751 6806,2732 6831,2732 6858,2732 6878,2750 6899,2768 6920,2788 6942,2807 6971,2807 7017,2807 7042,2761 7042,2722 L 7042,2722 Z"/>
           <path fill="rgb(0,0,0)" stroke="none" d="M 7311,2622 C 7319,2643 7328,2675 7347,2727 7374,2798 7386,2824 7411,2864 7417,2873 7418,2873 7421,2873 7427,2873 7436,2868 7441,2865 7447,2860 7447,2859 7452,2838 7477,2728 7509,2613 7517,2593 7518,2593 7526,2577 7578,2576 7587,2575 7595,2553 7595,2544 7595,2537 7592,2537 7586,2537 7544,2537 7525,2555 7520,2560 7508,2575 7498,2606 7479,2676 7464,2730 7450,2785 7437,2839 7414,2804 7401,2771 7381,2717 7359,2657 7345,2613 7334,2575 7331,2567 7331,2566 7327,2566 7326,2566 7318,2566 7305,2577 7301,2580 7301,2584 7300,2589 7289,2701 7249,2811 7238,2831 7234,2838 7229,2845 7221,2845 7216,2845 7200,2843 7189,2833 7187,2831 7186,2831 7186,2831 7179,2831 7170,2852 7170,2862 7170,2875 7196,2884 7208,2884 7235,2884 7256,2825 7263,2805 7290,2729 7303,2667 7311,2622 L 7311,2622 Z"/>
           <path fill="rgb(0,0,0)" stroke="none" d="M 7730,2964 C 7730,2963 7730,2962 7723,2955 7670,2902 7657,2822 7657,2758 7657,2685 7673,2611 7724,2559 7730,2554 7730,2553 7730,2552 7730,2549 7728,2548 7726,2548 7721,2548 7684,2576 7659,2630 7637,2676 7632,2722 7632,2758 7632,2791 7637,2841 7660,2889 7685,2941 7721,2968 7726,2968 7728,2968 7730,2967 7730,2964 L 7730,2964 Z"/>
           <path fill="rgb(0,0,0)" stroke="none" d="M 7948,2728 C 7948,2695 7946,2661 7931,2630 7912,2590 7877,2583 7860,2583 7834,2583 7804,2594 7786,2633 7773,2662 7771,2695 7771,2728 7771,2760 7772,2798 7790,2830 7808,2864 7839,2872 7859,2872 7882,2872 7914,2863 7933,2823 7946,2794 7948,2762 7948,2728 L 7948,2728 Z M 7859,2863 C 7843,2863 7818,2852 7810,2812 7806,2787 7806,2748 7806,2723 7806,2696 7806,2669 7809,2646 7817,2596 7849,2592 7859,2592 7873,2592 7901,2600 7909,2641 7913,2665 7913,2697 7913,2723 7913,2755 7913,2783 7909,2810 7902,2850 7878,2863 7859,2863 L 7859,2863 Z"/>
           <path fill="rgb(0,0,0)" stroke="none" d="M 8051,2862 C 8051,2835 8040,2818 8024,2818 8010,2818 8001,2829 8001,2841 8001,2852 8010,2863 8024,2863 8029,2863 8034,2861 8038,2857 8040,2857 8040,2856 8041,2856 8041,2856 8041,2857 8041,2862 8041,2894 8027,2919 8013,2933 8008,2937 8008,2938 8008,2939 8008,2942 8010,2944 8012,2944 8017,2944 8051,2912 8051,2862 L 8051,2862 Z"/>
           <path fill="rgb(0,0,0)" stroke="none" d="M 8346,2728 C 8346,2695 8344,2661 8330,2630 8310,2590 8276,2583 8258,2583 8233,2583 8202,2594 8185,2633 8171,2662 8169,2695 8169,2728 8169,2760 8171,2798 8188,2830 8206,2864 8237,2872 8257,2872 8280,2872 8312,2863 8331,2823 8344,2794 8346,2762 8346,2728 L 8346,2728 Z M 8257,2863 C 8241,2863 8216,2852 8209,2812 8204,2787 8204,2748 8204,2723 8204,2696 8204,2669 8207,2646 8215,2596 8247,2592 8257,2592 8271,2592 8299,2600 8307,2641 8311,2665 8311,2697 8311,2723 8311,2755 8311,2783 8307,2810 8300,2850 8276,2863 8257,2863 L 8257,2863 Z"/>
           <path fill="rgb(0,0,0)" stroke="none" d="M 8444,2841 C 8444,2828 8434,2818 8422,2818 8410,2818 8400,2828 8400,2841 8400,2853 8410,2863 8422,2863 8434,2863 8444,2853 8444,2841 L 8444,2841 Z"/>
           <path fill="rgb(0,0,0)" stroke="none" d="M 8604,2594 C 8604,2584 8604,2583 8595,2583 8568,2610 8531,2610 8518,2610 L 8518,2623 C 8526,2623 8551,2623 8573,2612 L 8573,2830 C 8573,2845 8572,2850 8534,2850 L 8520,2850 8520,2863 C 8535,2862 8572,2862 8589,2862 8606,2862 8642,2862 8657,2863 L 8657,2850 8644,2850 C 8606,2850 8604,2845 8604,2830 L 8604,2594 8604,2594 Z"/>
           <path fill="rgb(0,0,0)" stroke="none" d="M 8813,2758 C 8813,2725 8808,2674 8785,2627 8760,2575 8724,2548 8719,2548 8717,2548 8715,2549 8715,2552 8715,2553 8715,2554 8723,2561 8765,2603 8789,2670 8789,2758 8789,2830 8773,2904 8721,2957 8715,2962 8715,2963 8715,2964 8715,2966 8717,2968 8719,2968 8724,2968 8762,2939 8786,2886 8808,2840 8813,2793 8813,2758 L 8813,2758 Z"/>
          </g>
         </g>
        </g>
       </g>
       <g class="Group">
        <g class="Graphic">
         <g id="id16">
          <rect class="BoundingBox" stroke="none" fill="none" x="6050" y="5504" width="4038" height="432"/>
          <defs>
           <clipPath id="clip_path_2" clipPathUnits="userSpaceOnUse">
            <path d="M 6050,5504 L 10087,5504 10087,5935 6050,5935 6050,5504 Z"/>
           </clipPath>
          </defs>
          <g clip-path="url(#clip_path_2)">
           <path fill="rgb(0,0,0)" stroke="none" d="M 6147,5682 C 6149,5673 6154,5657 6154,5655 6154,5648 6149,5644 6141,5644 6140,5644 6128,5644 6125,5659 L 6064,5903 C 6063,5908 6063,5909 6063,5909 6063,5916 6067,5921 6074,5921 6083,5921 6088,5913 6089,5912 6091,5908 6096,5886 6112,5821 6126,5833 6145,5835 6153,5835 6183,5835 6199,5816 6209,5804 6213,5823 6229,5835 6247,5835 6262,5835 6272,5825 6279,5811 6286,5796 6291,5771 6291,5770 6291,5766 6287,5766 6286,5766 6282,5766 6281,5767 6280,5773 6273,5800 6265,5825 6248,5825 6237,5825 6235,5814 6235,5806 6235,5797 6241,5777 6244,5762 L 6256,5717 C 6257,5710 6261,5694 6263,5688 6265,5679 6269,5663 6269,5660 6269,5652 6263,5649 6257,5649 6255,5649 6244,5649 6241,5663 L 6221,5742 C 6216,5763 6211,5781 6210,5785 6209,5787 6189,5825 6155,5825 6134,5825 6124,5811 6124,5789 6124,5776 6127,5765 6130,5753 L 6147,5682 6147,5682 Z"/>
           <path fill="rgb(0,0,0)" stroke="none" d="M 6444,5931 C 6444,5930 6444,5929 6436,5922 6384,5869 6370,5789 6370,5725 6370,5652 6386,5578 6438,5526 6444,5521 6444,5520 6444,5519 6444,5516 6442,5515 6439,5515 6435,5515 6397,5543 6372,5597 6351,5643 6346,5689 6346,5725 6346,5758 6350,5808 6374,5856 6399,5908 6435,5935 6439,5935 6442,5935 6444,5934 6444,5931 L 6444,5931 Z"/>
           <path fill="rgb(0,0,0)" stroke="none" d="M 6633,5673 C 6621,5673 6613,5682 6613,5692 6613,5697 6616,5704 6626,5704 6635,5704 6645,5697 6645,5680 6645,5661 6627,5644 6595,5644 6539,5644 6524,5687 6524,5705 6524,5738 6555,5745 6567,5747 6589,5751 6611,5756 6611,5779 6611,5790 6601,5825 6551,5825 6545,5825 6512,5825 6503,5803 6519,5805 6529,5792 6529,5781 6529,5771 6522,5766 6514,5766 6503,5766 6490,5775 6490,5794 6490,5818 6514,5835 6550,5835 6618,5835 6635,5784 6635,5765 6635,5750 6627,5739 6622,5734 6610,5722 6598,5720 6580,5716 6565,5713 6548,5710 6548,5691 6548,5679 6558,5653 6595,5653 6605,5653 6626,5656 6633,5673 L 6633,5673 Z"/>
           <path fill="rgb(0,0,0)" stroke="none" d="M 6815,5839 L 6805,5839 C 6804,5846 6801,5863 6797,5866 6795,5868 6772,5868 6768,5868 L 6713,5868 C 6744,5841 6755,5832 6772,5818 6794,5801 6815,5783 6815,5755 6815,5719 6783,5698 6746,5698 6709,5698 6684,5723 6684,5750 6684,5765 6697,5767 6700,5767 6707,5767 6715,5762 6715,5751 6715,5746 6713,5735 6698,5735 6707,5715 6727,5708 6741,5708 6771,5708 6786,5731 6786,5755 6786,5781 6768,5801 6758,5811 L 6687,5881 C 6684,5884 6684,5885 6684,5893 L 6806,5893 6815,5839 6815,5839 Z"/>
           <path fill="rgb(0,0,0)" stroke="none" d="M 6977,5725 C 6977,5692 6972,5641 6949,5594 6923,5542 6887,5515 6883,5515 6880,5515 6879,5516 6879,5519 6879,5520 6879,5521 6887,5528 6928,5570 6952,5637 6952,5725 6952,5797 6937,5871 6884,5924 6879,5929 6879,5930 6879,5931 6879,5933 6880,5935 6883,5935 6887,5935 6925,5906 6950,5853 6972,5807 6977,5760 6977,5725 L 6977,5725 Z"/>
           <path fill="rgb(0,0,0)" stroke="none" d="M 7285,5733 L 7402,5733 C 7408,5733 7416,5733 7416,5725 7416,5716 7408,5716 7402,5716 L 7285,5716 7285,5599 C 7285,5593 7285,5585 7276,5585 7268,5585 7268,5593 7268,5599 L 7268,5716 7150,5716 C 7144,5716 7136,5716 7136,5725 7136,5733 7144,5733 7150,5733 L 7268,5733 7268,5851 C 7268,5857 7268,5865 7276,5865 7285,5865 7285,5857 7285,5851 L 7285,5733 7285,5733 Z"/>
           <path fill="rgb(0,0,0)" stroke="none" d="M 7660,5735 C 7666,5735 7674,5735 7674,5728 7674,5722 7669,5722 7662,5722 L 7593,5722 C 7604,5686 7627,5662 7665,5662 L 7679,5662 C 7686,5662 7692,5662 7692,5655 7692,5649 7687,5649 7680,5649 L 7665,5649 C 7610,5649 7554,5691 7554,5755 7554,5801 7585,5835 7630,5835 7657,5835 7685,5818 7685,5813 7685,5812 7684,5807 7681,5807 7680,5807 7679,5807 7675,5810 7662,5818 7647,5825 7631,5825 7606,5825 7585,5808 7585,5771 7585,5756 7589,5740 7590,5735 L 7660,5735 7660,5735 Z"/>
           <path fill="rgb(0,0,0)" stroke="none" d="M 7854,5839 L 7844,5839 C 7843,5846 7840,5863 7836,5866 7834,5868 7811,5868 7807,5868 L 7753,5868 C 7784,5841 7794,5832 7812,5818 7834,5801 7854,5783 7854,5755 7854,5719 7823,5698 7785,5698 7748,5698 7724,5723 7724,5750 7724,5765 7736,5767 7739,5767 7746,5767 7755,5762 7755,5751 7755,5746 7753,5735 7738,5735 7747,5715 7767,5708 7781,5708 7810,5708 7825,5731 7825,5755 7825,5781 7807,5801 7798,5811 L 7727,5881 C 7724,5884 7724,5885 7724,5893 L 7845,5893 7854,5839 7854,5839 Z"/>
           <path fill="rgb(0,0,0)" stroke="none" d="M 8316,5689 C 8316,5680 8313,5676 8310,5676 8308,5676 8304,5679 8304,5687 8302,5727 8274,5750 8245,5750 8218,5750 8198,5732 8177,5714 8156,5695 8134,5676 8105,5676 8059,5676 8034,5722 8034,5760 8034,5774 8040,5774 8040,5774 8045,5774 8046,5765 8046,5764 8048,5718 8080,5699 8105,5699 8132,5699 8152,5717 8173,5735 8194,5755 8216,5774 8245,5774 8291,5774 8316,5728 8316,5689 L 8316,5689 Z"/>
           <path fill="rgb(0,0,0)" stroke="none" d="M 8585,5589 C 8593,5610 8602,5642 8621,5694 8648,5765 8660,5791 8685,5831 8691,5840 8692,5840 8695,5840 8701,5840 8710,5835 8715,5832 8721,5827 8721,5826 8726,5805 8751,5695 8783,5580 8791,5560 8792,5560 8800,5544 8852,5543 8861,5542 8869,5520 8869,5511 8869,5504 8866,5504 8860,5504 8818,5504 8799,5522 8794,5527 8782,5542 8772,5573 8753,5643 8738,5697 8724,5752 8711,5806 8688,5771 8675,5738 8655,5684 8633,5624 8619,5580 8608,5542 8605,5534 8605,5533 8601,5533 8600,5533 8592,5533 8579,5544 8575,5547 8575,5551 8574,5556 8563,5668 8523,5778 8512,5798 8508,5805 8503,5812 8495,5812 8490,5812 8474,5810 8463,5800 8461,5798 8460,5798 8460,5798 8453,5798 8444,5819 8444,5829 8444,5842 8470,5851 8482,5851 8509,5851 8530,5792 8537,5772 8564,5696 8577,5634 8585,5589 L 8585,5589 Z"/>
           <path fill="rgb(0,0,0)" stroke="none" d="M 9004,5931 C 9004,5930 9004,5929 8997,5922 8944,5869 8931,5789 8931,5725 8931,5652 8947,5578 8998,5526 9004,5521 9004,5520 9004,5519 9004,5516 9002,5515 9000,5515 8995,5515 8958,5543 8933,5597 8911,5643 8906,5689 8906,5725 8906,5758 8911,5808 8934,5856 8959,5908 8995,5935 9000,5935 9002,5935 9004,5934 9004,5931 L 9004,5931 Z"/>
           <path fill="rgb(0,0,0)" stroke="none" d="M 9222,5695 C 9222,5662 9220,5628 9205,5597 9186,5557 9151,5550 9134,5550 9108,5550 9078,5561 9060,5600 9047,5629 9045,5662 9045,5695 9045,5727 9046,5765 9064,5797 9082,5831 9113,5839 9133,5839 9156,5839 9188,5830 9207,5790 9220,5761 9222,5729 9222,5695 L 9222,5695 Z M 9133,5830 C 9117,5830 9092,5819 9084,5779 9080,5754 9080,5715 9080,5690 9080,5663 9080,5636 9083,5613 9091,5563 9123,5559 9133,5559 9147,5559 9175,5567 9183,5608 9187,5632 9187,5664 9187,5690 9187,5722 9187,5750 9183,5777 9176,5817 9152,5830 9133,5830 L 9133,5830 Z"/>
           <path fill="rgb(0,0,0)" stroke="none" d="M 9325,5829 C 9325,5802 9314,5785 9298,5785 9284,5785 9275,5796 9275,5808 9275,5819 9284,5830 9298,5830 9303,5830 9308,5828 9312,5824 9314,5824 9314,5823 9315,5823 9315,5823 9315,5824 9315,5829 9315,5861 9301,5886 9287,5900 9282,5904 9282,5905 9282,5906 9282,5909 9284,5911 9286,5911 9291,5911 9325,5879 9325,5829 L 9325,5829 Z"/>
           <path fill="rgb(0,0,0)" stroke="none" d="M 9620,5695 C 9620,5662 9618,5628 9604,5597 9584,5557 9550,5550 9532,5550 9507,5550 9476,5561 9459,5600 9445,5629 9443,5662 9443,5695 9443,5727 9445,5765 9462,5797 9480,5831 9511,5839 9531,5839 9554,5839 9586,5830 9605,5790 9618,5761 9620,5729 9620,5695 L 9620,5695 Z M 9531,5830 C 9515,5830 9490,5819 9483,5779 9478,5754 9478,5715 9478,5690 9478,5663 9478,5636 9481,5613 9489,5563 9521,5559 9531,5559 9545,5559 9573,5567 9581,5608 9585,5632 9585,5664 9585,5690 9585,5722 9585,5750 9581,5777 9574,5817 9550,5830 9531,5830 L 9531,5830 Z"/>
           <path fill="rgb(0,0,0)" stroke="none" d="M 9718,5808 C 9718,5795 9708,5785 9696,5785 9684,5785 9674,5795 9674,5808 9674,5820 9684,5830 9696,5830 9708,5830 9718,5820 9718,5808 L 9718,5808 Z"/>
           <path fill="rgb(0,0,0)" stroke="none" d="M 9878,5561 C 9878,5551 9878,5550 9869,5550 9842,5577 9805,5577 9792,5577 L 9792,5590 C 9800,5590 9825,5590 9847,5579 L 9847,5797 C 9847,5812 9846,5817 9808,5817 L 9794,5817 9794,5830 C 9809,5829 9846,5829 9863,5829 9880,5829 9916,5829 9931,5830 L 9931,5817 9918,5817 C 9880,5817 9878,5812 9878,5797 L 9878,5561 9878,5561 Z"/>
           <path fill="rgb(0,0,0)" stroke="none" d="M 10087,5725 C 10087,5692 10082,5641 10059,5594 10034,5542 9998,5515 9993,5515 9991,5515 9989,5516 9989,5519 9989,5520 9989,5521 9997,5528 10039,5570 10063,5637 10063,5725 10063,5797 10047,5871 9995,5924 9989,5929 9989,5930 9989,5931 9989,5933 9991,5935 9993,5935 9998,5935 10036,5906 10060,5853 10082,5807 10087,5760 10087,5725 L 10087,5725 Z"/>
          </g>
         </g>
        </g>
       </g>
       <g class="Group">
        <g class="Graphic">
         <g id="id17">
          <rect class="BoundingBox" stroke="none" fill="none" x="12327" y="2594" width="2865" height="464"/>
          <path fill="rgb(0,0,0)" stroke="none" d="M 12484,2694 C 12492,2716 12501,2748 12520,2800 12546,2871 12558,2897 12584,2937 12590,2946 12590,2946 12594,2946 12600,2946 12609,2941 12613,2938 12619,2933 12620,2932 12624,2912 12650,2801 12682,2686 12690,2666 12691,2665 12699,2649 12751,2649 12759,2648 12767,2626 12767,2617 12767,2610 12765,2610 12759,2610 12717,2610 12698,2628 12693,2633 12681,2648 12671,2679 12651,2749 12637,2803 12623,2858 12610,2912 12587,2877 12574,2844 12554,2790 12531,2730 12518,2686 12506,2648 12504,2640 12503,2639 12500,2639 12499,2639 12490,2639 12478,2649 12474,2653 12474,2657 12473,2662 12461,2774 12422,2884 12410,2904 12407,2911 12402,2918 12393,2918 12389,2918 12373,2916 12362,2906 12360,2904 12359,2904 12358,2904 12352,2904 12343,2925 12343,2936 12343,2949 12369,2957 12380,2957 12407,2957 12429,2898 12436,2878 12463,2802 12476,2739 12484,2694 L 12484,2694 Z"/>
          <path fill="rgb(0,0,0)" stroke="none" d="M 12903,3037 C 12903,3036 12903,3035 12895,3028 12843,2975 12829,2895 12829,2831 12829,2758 12845,2684 12897,2632 12903,2627 12903,2626 12903,2625 12903,2622 12901,2620 12898,2620 12894,2620 12856,2649 12831,2702 12810,2749 12805,2795 12805,2831 12805,2864 12809,2914 12833,2962 12858,3014 12894,3041 12898,3041 12901,3041 12903,3040 12903,3037 L 12903,3037 Z"/>
          <path fill="rgb(0,0,0)" stroke="none" d="M 13024,2788 C 13026,2779 13031,2763 13031,2761 13031,2754 13026,2750 13018,2750 13017,2750 13005,2750 13002,2765 L 12941,3009 C 12940,3014 12940,3015 12940,3015 12940,3022 12944,3027 12951,3027 12960,3027 12965,3019 12966,3018 12968,3014 12973,2992 12989,2928 13003,2939 13022,2941 13030,2941 13060,2941 13076,2922 13086,2910 13090,2929 13106,2941 13124,2941 13139,2941 13149,2931 13155,2917 13163,2902 13168,2877 13168,2876 13168,2872 13164,2872 13163,2872 13159,2872 13158,2873 13157,2879 13150,2907 13142,2931 13125,2931 13114,2931 13112,2920 13112,2912 13112,2903 13117,2883 13121,2868 L 13133,2823 C 13134,2816 13138,2800 13140,2794 13142,2784 13146,2768 13146,2766 13146,2758 13140,2755 13134,2755 13132,2755 13121,2755 13117,2769 L 13098,2848 C 13093,2869 13088,2887 13087,2891 13086,2893 13066,2931 13032,2931 13011,2931 13001,2917 13001,2895 13001,2883 13004,2871 13007,2859 L 13024,2788 13024,2788 Z"/>
          <path fill="rgb(0,0,0)" stroke="none" d="M 13320,3037 C 13320,3036 13320,3035 13313,3028 13261,2975 13247,2895 13247,2831 13247,2758 13263,2684 13315,2632 13320,2627 13320,2626 13320,2625 13320,2622 13319,2620 13316,2620 13312,2620 13274,2649 13249,2702 13228,2749 13223,2795 13223,2831 13223,2864 13227,2914 13251,2962 13276,3014 13312,3041 13316,3041 13319,3041 13320,3040 13320,3037 L 13320,3037 Z"/>
          <path fill="rgb(0,0,0)" stroke="none" d="M 13510,2779 C 13498,2779 13489,2788 13489,2798 13489,2803 13493,2810 13503,2810 13512,2810 13522,2803 13522,2786 13522,2767 13504,2750 13472,2750 13416,2750 13401,2793 13401,2811 13401,2844 13432,2851 13444,2853 13466,2857 13488,2862 13488,2885 13488,2896 13478,2931 13427,2931 13422,2931 13389,2931 13379,2909 13395,2911 13406,2899 13406,2887 13406,2877 13399,2872 13390,2872 13379,2872 13367,2881 13367,2900 13367,2924 13391,2941 13427,2941 13495,2941 13512,2890 13512,2871 13512,2856 13504,2845 13499,2840 13487,2828 13475,2826 13457,2822 13441,2819 13425,2816 13425,2797 13425,2785 13435,2759 13472,2759 13482,2759 13503,2762 13510,2779 L 13510,2779 Z"/>
          <path fill="rgb(0,0,0)" stroke="none" d="M 13641,2812 C 13641,2804 13641,2803 13632,2803 13614,2822 13587,2822 13575,2822 L 13575,2833 C 13582,2833 13601,2833 13617,2825 L 13617,2975 C 13617,2985 13617,2988 13588,2988 L 13577,2988 13577,2999 C 13582,2999 13618,2998 13629,2998 13638,2998 13676,2999 13682,2999 L 13682,2988 13671,2988 C 13641,2988 13641,2985 13641,2975 L 13641,2812 13641,2812 Z"/>
          <path fill="rgb(0,0,0)" stroke="none" d="M 13853,2831 C 13853,2798 13849,2747 13826,2699 13800,2648 13764,2620 13760,2620 13757,2620 13756,2622 13756,2625 13756,2626 13756,2627 13764,2634 13805,2676 13829,2743 13829,2831 13829,2903 13813,2977 13761,3030 13756,3035 13756,3036 13756,3037 13756,3039 13757,3041 13760,3041 13764,3041 13802,3013 13827,2959 13848,2913 13853,2866 13853,2831 L 13853,2831 Z"/>
          <path fill="rgb(0,0,0)" stroke="none" d="M 13981,2936 C 13981,2908 13971,2891 13954,2891 13940,2891 13932,2902 13932,2914 13932,2925 13940,2936 13954,2936 13959,2936 13965,2934 13969,2930 13970,2930 13971,2929 13971,2929 13971,2929 13972,2930 13972,2936 13972,2967 13957,2992 13943,3006 13938,3010 13938,3011 13938,3013 13938,3015 13941,3017 13943,3017 13947,3017 13981,2985 13981,2936 L 13981,2936 Z"/>
          <path fill="rgb(0,0,0)" stroke="none" d="M 14301,2779 C 14307,2779 14322,2779 14322,2765 14322,2755 14313,2755 14305,2755 L 14209,2755 C 14146,2755 14099,2824 14099,2874 14099,2911 14124,2941 14162,2941 14212,2941 14268,2890 14268,2825 14268,2818 14268,2798 14255,2779 L 14301,2779 14301,2779 Z M 14162,2931 C 14142,2931 14125,2916 14125,2886 14125,2873 14130,2839 14145,2814 14162,2785 14188,2779 14202,2779 14238,2779 14241,2807 14241,2820 14241,2840 14232,2874 14218,2896 14202,2920 14179,2931 14162,2931 L 14162,2931 Z"/>
          <path fill="rgb(0,0,0)" stroke="none" d="M 14478,3037 C 14478,3036 14478,3035 14471,3028 14418,2975 14405,2895 14405,2831 14405,2758 14421,2684 14473,2632 14478,2627 14478,2626 14478,2625 14478,2622 14477,2620 14474,2620 14470,2620 14432,2649 14407,2702 14386,2749 14381,2795 14381,2831 14381,2864 14385,2914 14408,2962 14434,3014 14470,3041 14474,3041 14477,3041 14478,3040 14478,3037 L 14478,3037 Z"/>
          <path fill="rgb(0,0,0)" stroke="none" d="M 14668,2779 C 14656,2779 14647,2788 14647,2798 14647,2803 14651,2810 14660,2810 14670,2810 14680,2803 14680,2786 14680,2767 14662,2750 14630,2750 14574,2750 14558,2793 14558,2811 14558,2844 14590,2851 14602,2853 14624,2857 14646,2862 14646,2885 14646,2896 14636,2931 14585,2931 14579,2931 14547,2931 14537,2909 14553,2911 14564,2899 14564,2887 14564,2877 14557,2872 14548,2872 14537,2872 14525,2881 14525,2900 14525,2924 14549,2941 14585,2941 14653,2941 14670,2890 14670,2871 14670,2856 14662,2845 14657,2840 14645,2828 14633,2826 14614,2822 14599,2819 14582,2816 14582,2797 14582,2785 14592,2759 14630,2759 14640,2759 14661,2762 14668,2779 L 14668,2779 Z"/>
          <path fill="rgb(0,0,0)" stroke="none" d="M 14799,2812 C 14799,2804 14799,2803 14790,2803 14771,2822 14745,2822 14732,2822 L 14732,2833 C 14740,2833 14759,2833 14775,2825 L 14775,2975 C 14775,2985 14775,2988 14746,2988 L 14735,2988 14735,2999 C 14740,2999 14776,2998 14787,2998 14796,2998 14833,2999 14840,2999 L 14840,2988 14829,2988 C 14799,2988 14799,2985 14799,2975 L 14799,2812 14799,2812 Z"/>
          <path fill="rgb(0,0,0)" stroke="none" d="M 15011,2831 C 15011,2798 15007,2747 14983,2699 14958,2648 14922,2620 14918,2620 14915,2620 14913,2622 14913,2625 14913,2626 14913,2627 14921,2634 14963,2676 14987,2743 14987,2831 14987,2903 14971,2977 14919,3030 14913,3035 14913,3036 14913,3037 14913,3039 14915,3041 14918,3041 14922,3041 14960,3013 14985,2959 15006,2913 15011,2866 15011,2831 L 15011,2831 Z"/>
          <path fill="rgb(0,0,0)" stroke="none" d="M 15175,2831 C 15175,2798 15170,2747 15147,2699 15122,2648 15086,2620 15082,2620 15079,2620 15077,2622 15077,2625 15077,2626 15077,2627 15085,2634 15127,2676 15151,2743 15151,2831 15151,2903 15135,2977 15083,3030 15077,3035 15077,3036 15077,3037 15077,3039 15079,3041 15082,3041 15086,3041 15124,3013 15149,2959 15170,2913 15175,2866 15175,2831 L 15175,2831 Z"/>
         </g>
        </g>
       </g>
       <g class="com.sun.star.drawing.LineShape">
        <g id="id18">
         <rect class="BoundingBox" stroke="none" fill="none" x="15420" y="4271" width="1676" height="201"/>
         <path fill="none" stroke="rgb(0,0,0)" d="M 15566,4371 L 15619,4371"/>
         <path fill="none" stroke="rgb(0,0,0)" d="M 15653,4371 L 15707,4371"/>
         <path fill="none" stroke="rgb(0,0,0)" d="M 15741,4371 L 15794,4371"/>
         <path fill="none" stroke="rgb(0,0,0)" d="M 15828,4371 L 15881,4371"/>
         <path fill="none" stroke="rgb(0,0,0)" d="M 15915,4371 L 15969,4371"/>
         <path fill="none" stroke="rgb(0,0,0)" d="M 16003,4371 L 16056,4371"/>
         <path fill="none" stroke="rgb(0,0,0)" d="M 16090,4371 L 16143,4371"/>
         <path fill="none" stroke="rgb(0,0,0)" d="M 16177,4371 L 16230,4371"/>
         <path fill="none" stroke="rgb(0,0,0)" d="M 16265,4371 L 16318,4371"/>
         <path fill="none" stroke="rgb(0,0,0)" d="M 16352,4371 L 16405,4371"/>
         <path fill="none" stroke="rgb(0,0,0)" d="M 16439,4371 L 16492,4371"/>
         <path fill="none" stroke="rgb(0,0,0)" d="M 16527,4371 L 16580,4371"/>
         <path fill="none" stroke="rgb(0,0,0)" d="M 16614,4371 L 16667,4371"/>
         <path fill="none" stroke="rgb(0,0,0)" d="M 16701,4371 L 16754,4371"/>
         <path fill="none" stroke="rgb(0,0,0)" d="M 16789,4371 L 16842,4371"/>
         <path fill="none" stroke="rgb(0,0,0)" d="M 16876,4371 L 16929,4371"/>
         <path fill="rgb(0,0,0)" stroke="none" d="M 15420,4371 L 15580,4471 15580,4271 15420,4371 Z"/>
         <path fill="rgb(0,0,0)" stroke="none" d="M 17095,4371 L 16935,4271 16935,4471 17095,4371 Z"/>
        </g>
       </g>
       <g class="com.sun.star.drawing.LineShape">
        <g id="id19">
         <rect class="BoundingBox" stroke="none" fill="none" x="12924" y="1278" width="1125" height="215"/>
         <path fill="none" stroke="rgb(0,0,0)" d="M 13071,1378 L 13124,1379"/>
         <path fill="none" stroke="rgb(0,0,0)" d="M 13158,1380 L 13212,1381"/>
         <path fill="none" stroke="rgb(0,0,0)" d="M 13246,1381 L 13299,1382"/>
         <path fill="none" stroke="rgb(0,0,0)" d="M 13333,1383 L 13386,1383"/>
         <path fill="none" stroke="rgb(0,0,0)" d="M 13420,1384 L 13473,1385"/>
         <path fill="none" stroke="rgb(0,0,0)" d="M 13508,1385 L 13561,1386"/>
         <path fill="none" stroke="rgb(0,0,0)" d="M 13595,1387 L 13648,1388"/>
         <path fill="none" stroke="rgb(0,0,0)" d="M 13682,1388 L 13735,1389"/>
         <path fill="none" stroke="rgb(0,0,0)" d="M 13770,1390 L 13823,1390"/>
         <path fill="none" stroke="rgb(0,0,0)" d="M 13857,1391 L 13901,1392"/>
         <path fill="rgb(0,0,0)" stroke="none" d="M 12925,1376 L 13083,1479 13086,1279 12925,1376 Z"/>
         <path fill="rgb(0,0,0)" stroke="none" d="M 14047,1394 L 13889,1291 13886,1491 14047,1394 Z"/>
        </g>
       </g>
       <g class="Group">
        <g class="Graphic">
         <g id="id20">
          <rect class="BoundingBox" stroke="none" fill="none" x="332" y="1071" width="1508" height="360"/>
          <defs>
           <clipPath id="clip_path_3" clipPathUnits="userSpaceOnUse">
            <path d="M 332,1071 L 1839,1071 1839,1430 332,1430 332,1071 Z"/>
           </clipPath>
          </defs>
          <g clip-path="url(#clip_path_3)">
           <path fill="rgb(0,0,0)" stroke="none" d="M 479,1204 L 425,1191 C 399,1185 383,1162 383,1138 383,1108 405,1083 438,1083 508,1083 518,1152 520,1171 521,1173 521,1176 525,1176 531,1176 531,1173 531,1165 L 531,1081 C 531,1074 531,1071 526,1071 523,1071 523,1071 520,1076 L 505,1100 C 492,1088 475,1071 438,1071 391,1071 356,1108 356,1152 356,1187 378,1218 411,1229 415,1231 437,1236 466,1243 478,1246 490,1249 502,1265 511,1275 515,1289 515,1303 515,1333 494,1363 459,1363 447,1363 415,1361 392,1341 368,1318 367,1291 366,1276 366,1272 362,1272 361,1272 356,1272 356,1275 356,1282 L 356,1366 C 356,1373 356,1376 360,1376 363,1376 364,1375 367,1371 367,1370 368,1369 382,1347 395,1361 422,1376 459,1376 508,1376 542,1335 542,1289 542,1247 514,1213 479,1204 L 479,1204 Z"/>
           <path fill="rgb(0,0,0)" stroke="none" d="M 639,1199 L 699,1199 699,1186 639,1186 639,1109 628,1109 C 628,1143 615,1188 574,1190 L 574,1199 610,1199 610,1315 C 610,1367 649,1372 664,1372 694,1372 706,1342 706,1315 L 706,1291 695,1291 695,1314 C 695,1345 683,1361 667,1361 639,1361 639,1323 639,1316 L 639,1199 639,1199 Z"/>
           <path fill="rgb(0,0,0)" stroke="none" d="M 870,1335 C 872,1352 883,1370 903,1370 912,1370 937,1364 937,1330 L 937,1306 927,1306 927,1330 C 927,1354 916,1357 912,1357 898,1357 896,1338 896,1336 L 896,1252 C 896,1234 896,1218 881,1202 865,1186 844,1179 823,1179 789,1179 760,1199 760,1226 760,1239 768,1246 779,1246 791,1246 798,1238 798,1227 798,1222 796,1208 777,1207 788,1193 809,1188 822,1188 843,1188 867,1205 867,1242 L 867,1257 C 846,1259 816,1260 790,1273 758,1287 748,1309 748,1327 748,1361 788,1372 815,1372 843,1372 862,1355 870,1335 L 870,1335 Z M 867,1266 L 867,1308 C 867,1348 837,1362 818,1362 797,1362 780,1348 780,1327 780,1304 798,1269 867,1266 L 867,1266 Z"/>
           <path fill="rgb(0,0,0)" stroke="none" d="M 1013,1199 L 1074,1199 1074,1186 1013,1186 1013,1109 1003,1109 C 1002,1143 990,1188 948,1190 L 948,1199 984,1199 984,1315 C 984,1367 1023,1372 1039,1372 1068,1372 1080,1342 1080,1315 L 1080,1291 1070,1291 1070,1314 C 1070,1345 1057,1361 1042,1361 1013,1361 1013,1323 1013,1316 L 1013,1199 1013,1199 Z"/>
           <path fill="rgb(0,0,0)" stroke="none" d="M 1151,1261 C 1154,1199 1189,1188 1204,1188 1247,1188 1251,1245 1251,1261 L 1151,1261 1151,1261 Z M 1151,1270 L 1269,1270 C 1278,1270 1279,1270 1279,1261 1279,1220 1256,1179 1204,1179 1155,1179 1116,1222 1116,1275 1116,1331 1160,1372 1209,1372 1260,1372 1279,1325 1279,1317 1279,1313 1276,1312 1274,1312 1270,1312 1269,1315 1268,1318 1253,1361 1215,1361 1211,1361 1190,1361 1173,1349 1164,1333 1151,1313 1151,1285 1151,1270 L 1151,1270 Z"/>
           <path fill="rgb(0,0,0)" stroke="none" d="M 1667,1210 C 1655,1210 1647,1220 1647,1229 1647,1235 1650,1241 1660,1241 1669,1241 1679,1234 1679,1218 1679,1199 1661,1181 1629,1181 1573,1181 1558,1224 1558,1243 1558,1275 1589,1282 1601,1284 1623,1288 1645,1293 1645,1316 1645,1327 1635,1362 1585,1362 1579,1362 1546,1362 1537,1340 1553,1342 1563,1330 1563,1318 1563,1308 1556,1303 1548,1303 1537,1303 1524,1312 1524,1331 1524,1355 1548,1372 1584,1372 1652,1372 1669,1321 1669,1302 1669,1287 1661,1276 1656,1271 1644,1260 1632,1257 1614,1254 1599,1250 1582,1247 1582,1228 1582,1216 1592,1191 1629,1191 1639,1191 1660,1194 1667,1210 L 1667,1210 Z"/>
           <path fill="rgb(0,0,0)" stroke="none" d="M 1798,1243 C 1798,1235 1798,1235 1789,1235 1771,1253 1744,1254 1732,1254 L 1732,1264 C 1739,1264 1758,1264 1774,1256 L 1774,1406 C 1774,1416 1774,1419 1745,1419 L 1734,1419 1734,1430 C 1739,1430 1775,1429 1786,1429 1795,1429 1833,1430 1839,1430 L 1839,1419 1828,1419 C 1798,1419 1798,1416 1798,1406 L 1798,1243 1798,1243 Z"/>
          </g>
         </g>
        </g>
       </g>
       <g class="Group">
        <g class="Graphic">
         <g id="id21">
          <rect class="BoundingBox" stroke="none" fill="none" x="332" y="4189" width="1518" height="360"/>
          <defs>
           <clipPath id="clip_path_4" clipPathUnits="userSpaceOnUse">
            <path d="M 332,4189 L 1849,4189 1849,4548 332,4548 332,4189 Z"/>
           </clipPath>
          </defs>
          <g clip-path="url(#clip_path_4)">
           <path fill="rgb(0,0,0)" stroke="none" d="M 479,4322 L 425,4309 C 399,4303 383,4280 383,4256 383,4226 405,4201 438,4201 509,4201 518,4270 520,4289 521,4291 521,4294 525,4294 531,4294 531,4291 531,4283 L 531,4199 C 531,4192 531,4189 526,4189 523,4189 523,4189 520,4194 L 505,4218 C 493,4206 475,4189 438,4189 391,4189 356,4226 356,4270 356,4305 378,4336 411,4347 415,4349 437,4354 466,4361 478,4364 490,4367 502,4383 511,4393 515,4407 515,4421 515,4451 494,4481 459,4481 447,4481 415,4479 392,4459 368,4436 367,4409 366,4394 366,4390 362,4390 361,4390 356,4390 356,4393 356,4400 L 356,4484 C 356,4491 356,4494 360,4494 363,4494 364,4493 367,4489 367,4488 368,4487 382,4465 395,4479 422,4494 459,4494 509,4494 542,4453 542,4407 542,4365 514,4331 479,4322 L 479,4322 Z"/>
           <path fill="rgb(0,0,0)" stroke="none" d="M 639,4317 L 699,4317 699,4304 639,4304 639,4227 628,4227 C 628,4261 615,4306 574,4308 L 574,4317 610,4317 610,4433 C 610,4485 649,4490 664,4490 694,4490 706,4460 706,4433 L 706,4409 695,4409 695,4432 C 695,4463 683,4479 667,4479 639,4479 639,4441 639,4434 L 639,4317 639,4317 Z"/>
           <path fill="rgb(0,0,0)" stroke="none" d="M 870,4453 C 872,4470 883,4488 903,4488 912,4488 938,4482 938,4448 L 938,4424 927,4424 927,4448 C 927,4472 917,4475 912,4475 898,4475 896,4456 896,4454 L 896,4370 C 896,4352 896,4336 881,4320 865,4304 844,4297 824,4297 789,4297 760,4317 760,4344 760,4357 768,4364 779,4364 791,4364 799,4356 799,4345 799,4340 797,4326 777,4325 789,4311 809,4306 823,4306 843,4306 867,4323 867,4360 L 867,4375 C 846,4377 816,4378 790,4391 758,4405 748,4427 748,4445 748,4479 789,4490 815,4490 843,4490 862,4473 870,4453 L 870,4453 Z M 867,4384 L 867,4426 C 867,4466 837,4480 818,4480 797,4480 780,4466 780,4445 780,4422 798,4387 867,4384 L 867,4384 Z"/>
           <path fill="rgb(0,0,0)" stroke="none" d="M 1014,4317 L 1074,4317 1074,4304 1014,4304 1014,4227 1003,4227 C 1003,4261 990,4306 949,4308 L 949,4317 984,4317 984,4433 C 984,4485 1024,4490 1039,4490 1069,4490 1081,4460 1081,4433 L 1081,4409 1070,4409 1070,4432 C 1070,4463 1057,4479 1042,4479 1014,4479 1014,4441 1014,4434 L 1014,4317 1014,4317 Z"/>
           <path fill="rgb(0,0,0)" stroke="none" d="M 1152,4379 C 1154,4317 1190,4306 1204,4306 1247,4306 1252,4363 1252,4379 L 1152,4379 1152,4379 Z M 1151,4388 L 1269,4388 C 1278,4388 1279,4388 1279,4379 1279,4338 1257,4297 1204,4297 1155,4297 1116,4340 1116,4393 1116,4449 1161,4490 1209,4490 1260,4490 1279,4443 1279,4435 1279,4431 1276,4430 1274,4430 1270,4430 1269,4433 1268,4436 1254,4479 1216,4479 1212,4479 1191,4479 1174,4467 1164,4451 1151,4431 1151,4403 1151,4388 L 1151,4388 Z"/>
           <path fill="rgb(0,0,0)" stroke="none" d="M 1667,4328 C 1655,4328 1647,4338 1647,4347 1647,4353 1651,4359 1660,4359 1669,4359 1679,4352 1679,4336 1679,4317 1661,4299 1629,4299 1574,4299 1558,4342 1558,4361 1558,4393 1589,4400 1602,4402 1623,4406 1645,4411 1645,4434 1645,4445 1636,4480 1585,4480 1579,4480 1547,4480 1537,4458 1553,4460 1564,4448 1564,4436 1564,4426 1557,4421 1548,4421 1537,4421 1524,4430 1524,4449 1524,4473 1548,4490 1585,4490 1653,4490 1669,4439 1669,4420 1669,4405 1661,4394 1656,4389 1645,4378 1633,4375 1614,4372 1599,4368 1582,4365 1582,4346 1582,4334 1592,4309 1629,4309 1640,4309 1661,4312 1667,4328 L 1667,4328 Z"/>
           <path fill="rgb(0,0,0)" stroke="none" d="M 1849,4495 L 1839,4495 C 1838,4501 1835,4518 1831,4521 1829,4523 1806,4523 1802,4523 L 1748,4523 C 1779,4496 1789,4487 1807,4474 1829,4456 1849,4438 1849,4410 1849,4375 1818,4353 1780,4353 1743,4353 1719,4378 1719,4405 1719,4420 1731,4422 1734,4422 1741,4422 1750,4417 1750,4406 1750,4401 1748,4391 1732,4391 1742,4370 1762,4363 1776,4363 1805,4363 1820,4386 1820,4410 1820,4436 1802,4456 1793,4467 L 1722,4537 C 1719,4539 1719,4540 1719,4548 L 1840,4548 1849,4495 1849,4495 Z"/>
          </g>
         </g>
        </g>
       </g>
       <g class="Group">
        <g class="Graphic">
         <g id="id22">
          <rect class="BoundingBox" stroke="none" fill="none" x="14302" y="5504" width="2865" height="464"/>
          <path fill="rgb(0,0,0)" stroke="none" d="M 14459,5604 C 14467,5626 14476,5658 14495,5710 14521,5781 14533,5807 14559,5847 14565,5856 14565,5856 14569,5856 14575,5856 14584,5851 14588,5848 14594,5843 14595,5842 14599,5822 14625,5711 14657,5596 14665,5576 14666,5575 14674,5559 14726,5559 14734,5558 14742,5536 14742,5527 14742,5520 14740,5520 14734,5520 14692,5520 14673,5538 14668,5543 14656,5558 14646,5589 14626,5659 14612,5713 14598,5768 14585,5822 14562,5787 14549,5754 14529,5700 14506,5640 14493,5596 14481,5558 14479,5550 14478,5549 14475,5549 14474,5549 14465,5549 14453,5559 14449,5563 14449,5567 14448,5572 14436,5684 14397,5794 14385,5814 14382,5821 14377,5828 14368,5828 14364,5828 14348,5826 14337,5816 14335,5814 14334,5814 14333,5814 14327,5814 14318,5835 14318,5846 14318,5859 14344,5867 14355,5867 14382,5867 14404,5808 14411,5788 14438,5712 14451,5649 14459,5604 L 14459,5604 Z"/>
          <path fill="rgb(0,0,0)" stroke="none" d="M 14878,5947 C 14878,5946 14878,5945 14870,5938 14818,5885 14804,5805 14804,5741 14804,5668 14820,5594 14872,5542 14878,5537 14878,5536 14878,5535 14878,5532 14876,5530 14873,5530 14869,5530 14831,5559 14806,5612 14785,5659 14780,5705 14780,5741 14780,5774 14784,5824 14808,5872 14833,5924 14869,5951 14873,5951 14876,5951 14878,5950 14878,5947 L 14878,5947 Z"/>
          <path fill="rgb(0,0,0)" stroke="none" d="M 14999,5698 C 15001,5689 15006,5673 15006,5671 15006,5664 15001,5660 14993,5660 14992,5660 14980,5660 14977,5675 L 14916,5919 C 14915,5924 14915,5925 14915,5925 14915,5932 14919,5937 14926,5937 14935,5937 14940,5929 14941,5928 14943,5924 14948,5902 14964,5838 14978,5849 14997,5851 15005,5851 15035,5851 15051,5832 15061,5820 15065,5839 15081,5851 15099,5851 15114,5851 15124,5841 15130,5827 15138,5812 15143,5787 15143,5786 15143,5782 15139,5782 15138,5782 15134,5782 15133,5783 15132,5789 15125,5817 15117,5841 15100,5841 15089,5841 15087,5830 15087,5822 15087,5813 15092,5793 15096,5778 L 15108,5733 C 15109,5726 15113,5710 15115,5704 15117,5694 15121,5678 15121,5676 15121,5668 15115,5665 15109,5665 15107,5665 15096,5665 15092,5679 L 15073,5758 C 15068,5779 15063,5797 15062,5801 15061,5803 15041,5841 15007,5841 14986,5841 14976,5827 14976,5805 14976,5793 14979,5781 14982,5769 L 14999,5698 14999,5698 Z"/>
          <path fill="rgb(0,0,0)" stroke="none" d="M 15295,5947 C 15295,5946 15295,5945 15288,5938 15236,5885 15222,5805 15222,5741 15222,5668 15238,5594 15290,5542 15295,5537 15295,5536 15295,5535 15295,5532 15294,5530 15291,5530 15287,5530 15249,5559 15224,5612 15203,5659 15198,5705 15198,5741 15198,5774 15202,5824 15226,5872 15251,5924 15287,5951 15291,5951 15294,5951 15295,5950 15295,5947 L 15295,5947 Z"/>
          <path fill="rgb(0,0,0)" stroke="none" d="M 15485,5689 C 15473,5689 15464,5698 15464,5708 15464,5713 15468,5720 15478,5720 15487,5720 15497,5713 15497,5696 15497,5677 15479,5660 15447,5660 15391,5660 15376,5703 15376,5721 15376,5754 15407,5761 15419,5763 15441,5767 15463,5772 15463,5795 15463,5806 15453,5841 15402,5841 15397,5841 15364,5841 15354,5819 15370,5821 15381,5809 15381,5797 15381,5787 15374,5782 15365,5782 15354,5782 15342,5791 15342,5810 15342,5834 15366,5851 15402,5851 15470,5851 15487,5800 15487,5781 15487,5766 15479,5755 15474,5750 15462,5738 15450,5736 15432,5732 15416,5729 15400,5726 15400,5707 15400,5695 15410,5669 15447,5669 15457,5669 15478,5672 15485,5689 L 15485,5689 Z"/>
          <path fill="rgb(0,0,0)" stroke="none" d="M 15666,5855 L 15656,5855 C 15656,5862 15653,5879 15649,5882 15646,5884 15624,5884 15620,5884 L 15565,5884 C 15596,5857 15607,5848 15624,5835 15646,5817 15666,5799 15666,5771 15666,5735 15635,5713 15597,5713 15561,5713 15536,5739 15536,5766 15536,5781 15549,5783 15552,5783 15559,5783 15567,5778 15567,5767 15567,5762 15565,5751 15550,5751 15559,5731 15579,5724 15593,5724 15622,5724 15638,5747 15638,5771 15638,5797 15620,5817 15610,5827 L 15539,5898 C 15536,5900 15536,5901 15536,5909 L 15658,5909 15666,5855 15666,5855 Z"/>
          <path fill="rgb(0,0,0)" stroke="none" d="M 15828,5741 C 15828,5708 15824,5657 15801,5609 15775,5558 15739,5530 15735,5530 15732,5530 15731,5532 15731,5535 15731,5536 15731,5537 15739,5544 15780,5586 15804,5653 15804,5741 15804,5813 15788,5887 15736,5940 15731,5945 15731,5946 15731,5947 15731,5949 15732,5951 15735,5951 15739,5951 15777,5923 15802,5869 15823,5823 15828,5776 15828,5741 L 15828,5741 Z"/>
          <path fill="rgb(0,0,0)" stroke="none" d="M 15956,5846 C 15956,5818 15946,5801 15929,5801 15915,5801 15907,5812 15907,5824 15907,5835 15915,5846 15929,5846 15934,5846 15940,5844 15944,5840 15945,5840 15946,5839 15946,5839 15946,5839 15947,5840 15947,5846 15947,5877 15932,5902 15918,5916 15913,5920 15913,5921 15913,5923 15913,5925 15916,5927 15918,5927 15922,5927 15956,5895 15956,5846 L 15956,5846 Z"/>
          <path fill="rgb(0,0,0)" stroke="none" d="M 16276,5689 C 16282,5689 16297,5689 16297,5675 16297,5665 16288,5665 16280,5665 L 16184,5665 C 16121,5665 16074,5734 16074,5784 16074,5821 16099,5851 16137,5851 16187,5851 16243,5800 16243,5735 16243,5728 16243,5708 16230,5689 L 16276,5689 16276,5689 Z M 16137,5841 C 16117,5841 16100,5826 16100,5796 16100,5783 16105,5749 16120,5724 16137,5695 16163,5689 16177,5689 16213,5689 16216,5717 16216,5730 16216,5750 16207,5784 16193,5806 16177,5830 16154,5841 16137,5841 L 16137,5841 Z"/>
          <path fill="rgb(0,0,0)" stroke="none" d="M 16453,5947 C 16453,5946 16453,5945 16446,5938 16393,5885 16380,5805 16380,5741 16380,5668 16396,5594 16448,5542 16453,5537 16453,5536 16453,5535 16453,5532 16452,5530 16449,5530 16445,5530 16407,5559 16382,5612 16361,5659 16356,5705 16356,5741 16356,5774 16360,5824 16383,5872 16409,5924 16445,5951 16449,5951 16452,5951 16453,5950 16453,5947 L 16453,5947 Z"/>
          <path fill="rgb(0,0,0)" stroke="none" d="M 16643,5689 C 16631,5689 16622,5698 16622,5708 16622,5713 16626,5720 16635,5720 16645,5720 16655,5713 16655,5696 16655,5677 16637,5660 16605,5660 16549,5660 16533,5703 16533,5721 16533,5754 16565,5761 16577,5763 16599,5767 16621,5772 16621,5795 16621,5806 16611,5841 16560,5841 16554,5841 16522,5841 16512,5819 16528,5821 16539,5809 16539,5797 16539,5787 16532,5782 16523,5782 16512,5782 16500,5791 16500,5810 16500,5834 16524,5851 16560,5851 16628,5851 16645,5800 16645,5781 16645,5766 16637,5755 16632,5750 16620,5738 16608,5736 16589,5732 16574,5729 16557,5726 16557,5707 16557,5695 16567,5669 16605,5669 16615,5669 16636,5672 16643,5689 L 16643,5689 Z"/>
          <path fill="rgb(0,0,0)" stroke="none" d="M 16824,5855 L 16814,5855 C 16813,5862 16810,5879 16807,5882 16804,5884 16782,5884 16777,5884 L 16723,5884 C 16754,5857 16764,5848 16782,5835 16804,5817 16824,5799 16824,5771 16824,5735 16793,5713 16755,5713 16719,5713 16694,5739 16694,5766 16694,5781 16707,5783 16710,5783 16717,5783 16725,5778 16725,5767 16725,5762 16723,5751 16708,5751 16717,5731 16737,5724 16751,5724 16780,5724 16796,5747 16796,5771 16796,5797 16777,5817 16768,5827 L 16697,5898 C 16694,5900 16694,5901 16694,5909 L 16815,5909 16824,5855 16824,5855 Z"/>
          <path fill="rgb(0,0,0)" stroke="none" d="M 16986,5741 C 16986,5708 16982,5657 16958,5609 16933,5558 16897,5530 16893,5530 16890,5530 16888,5532 16888,5535 16888,5536 16888,5537 16896,5544 16938,5586 16962,5653 16962,5741 16962,5813 16946,5887 16894,5940 16888,5945 16888,5946 16888,5947 16888,5949 16890,5951 16893,5951 16897,5951 16935,5923 16960,5869 16981,5823 16986,5776 16986,5741 L 16986,5741 Z"/>
          <path fill="rgb(0,0,0)" stroke="none" d="M 17150,5741 C 17150,5708 17145,5657 17122,5609 17097,5558 17061,5530 17057,5530 17054,5530 17052,5532 17052,5535 17052,5536 17052,5537 17060,5544 17102,5586 17126,5653 17126,5741 17126,5813 17110,5887 17058,5940 17052,5945 17052,5946 17052,5947 17052,5949 17054,5951 17057,5951 17061,5951 17099,5923 17124,5869 17145,5823 17150,5776 17150,5741 L 17150,5741 Z"/>
         </g>
        </g>
       </g>
      </g>
     </g>
    </g>
   </g>
  </g>
 </g>
</svg>